<?xml version="1.0" encoding="UTF-8"?>
<svg id="Calque_2" data-name="Calque 2" xmlns="http://www.w3.org/2000/svg" xmlns:xlink="http://www.w3.org/1999/xlink" viewBox="0 0 296.06 481.29">
  <defs>
    <style>
      .cls-1 {
        fill: none;
      }

      .cls-2 {
        clip-path: url(#clippath);
      }

      .cls-3 {
        fill: #ebe8d7;
      }

      .cls-4 {
        fill: #e9e8d6;
      }

      .cls-5 {
        fill: #cd5a46;
      }

      .cls-6 {
        fill: #161522;
      }

      .cls-7 {
        fill: #a27451;
      }

      .cls-8 {
        opacity: .2;
      }
    </style>
    <clipPath id="clippath">
      <path class="cls-1" d="m38.65,197.2v-7.52c0-49.66,22.79-76.54,59.77-76.54,31.39,0,51.38,17.2,55.47,44.72h-33.32c-2.15-10.75-9.67-16.99-22.14-16.99-16.98,0-27.09,12.47-27.09,41.49v4.73c5.8-9.89,17.2-17.42,35.26-17.42,27.3,0,47.94,18.49,47.94,47.3v2.15c0,30.74-22.15,52.24-56.11,52.24-38.05,0-59.77-27.73-59.77-74.17Zm80.41,23v-1.72c0-12.9-7.95-22.15-21.28-22.15s-21.28,9.25-21.28,22.15v1.72c0,13.97,7.74,23.65,21.5,23.65s21.07-9.67,21.07-23.65Zm51.17-25.8v-4.3c0-44.29,17.63-76.97,57.19-76.97s57.4,32.68,57.4,76.97v4.3c0,44.5-16.98,76.97-57.4,76.97s-57.19-32.46-57.19-76.97Zm77.83.21v-4.3c0-34.4-3.66-48.16-20.64-48.16s-20.42,13.76-20.42,48.16v4.3c0,33.97,4.3,47.73,20.42,47.73,16.98,0,20.64-13.76,20.64-47.73Z"/>
    </clipPath>
  </defs>
  <g id="Calque_1-2" data-name="Calque 1">
    <g class="cls-8">
      <g class="cls-2">
        <g>
          <rect class="cls-4" width="295.1" height="480.8"/>
          <polygon class="cls-7" points="198.56 480.8 228.29 481.29 228.29 428.45 198.56 480.8"/>
          <path class="cls-5" d="m168.06,363.12l64.02,3.12-12.3,56.17s-47.97,16.94-48.35,16.19-3.37-75.49-3.37-75.49Z"/>
          <path class="cls-6" d="m282.64,304.13s-51.79,3.54-54.35,62.12-56.86,62.2-56.86,62.2c0,0,24.58,31.55,15.97,52.35h11.17s35.06-21.79,29.15-61.25c0,0-7.67-32.31,54.93-53.29v-62.12Z"/>
          <path class="cls-7" d="m282.39,429.09s-48.82,7.44-54.1,52.2l39.97-.28,14.13-51.92Z"/>
          <path class="cls-7" d="m1.14,376.49s8.62-10.19,34-9.32c0,0-3.64,1.8-34-.22v9.54Z"/>
          <polygon class="cls-5" points="99.01 190.65 33.51 189.03 2.21 200.46 .58 198.25 1.2 252.25 67.49 247.66 56.13 211.41 75.69 195.76 99.01 190.65"/>
          <polygon class="cls-5" points="99.74 429.59 35.91 427.9 15.98 432.56 5.02 440.69 1.23 444.52 1.7 481.01 76.91 480.8 47.5 457.35 60.54 447.53 72.49 433.63 99.74 429.59"/>
          <path class="cls-6" d="m98.06,64.36s31.91-1.59,31.57,26.7c-.34,28.29-16.73,32.77-16.73,32.77,0,0-8.14,2.88-14.19,3.43,0,0-27.2-1.18-43.76,14.68-16.56,15.87-19.53,28.98-19.53,28.98,0,0-2.81,13.45-1.9,18.11,0,0-34.55-1.17-32.86-32.25,1.66-30.59,31.05-29.52,31.05-29.52l66.37-62.9Z"/>
          <path class="cls-6" d="m100.46,303.23s31.91-1.59,31.57,26.7c-.34,28.29-16.73,32.77-16.73,32.77,0,0-8.14,2.88-14.19,3.43,0,0-27.2-1.18-43.76,14.68-16.56,15.87-19.53,28.98-19.53,28.98,0,0-2.81,13.45-1.9,18.11,0,0-35.07-1.21-32.86-32.25,2.21-31.05,31.53-28.29,31.53-28.29l65.88-64.13Z"/>
          <path class="cls-5" d="m98.06,64.36H33.43S61.21,1.04,41.06.71C24.52.44,7.39.71.18.69v126.56s55.44,7.66,79.89-18.46c23.82-25.45,17.99-44.44,17.99-44.44Z"/>
          <path class="cls-6" d="m.64,11.1S9.82.42,34.53.77c24.71.35,71.16,0,71.16,0,0,0,23.8-2.9,25.26,34.26,0,0,4.32,29.18-39.11,29.69C48.41,65.21.64,73.89.64,73.89V11.1Z"/>
          <g>
            <path class="cls-7" d="m33.51,1.7v61.69s35.82.87,31.84-36.09c0,0-4.25-24.67-31.84-25.61Z"/>
            <path class="cls-3" d="m34.44,63.4l-.31-61.69S-1.69,1.01,2.47,37.95c0,0,4.37,24.65,31.97,25.45Z"/>
          </g>
          <path class="cls-6" d="m1.2,252.25s9.18-10.68,33.89-10.33,71.16,0,71.16,0c0,0,23.8-2.9,25.26,34.26,0,0,2.85,28.14-40.58,28.64-43.43.5-89.73,10.23-89.73,10.23v-62.79Z"/>
          <path class="cls-6" d="m98.7,127.26h63.57s2.08,63.29-63.26,63.4"/>
          <g>
            <path class="cls-7" d="m34.45,241.91v63.4s36.81.89,32.72-37.09c0,0-4.36-25.35-32.72-26.31Z"/>
            <path class="cls-3" d="m35.41,305.31l-.32-63.4s-36.81-.71-32.54,37.25c0,0,4.49,25.33,32.85,26.15Z"/>
          </g>
          <path class="cls-7" d="m98.06,127.26v63.4s36.81.89,32.72-37.09c0,0-4.36-25.35-32.72-26.31Z"/>
          <path class="cls-5" d="m99.01,190.65l-.32-63.4s-36.81-.71-32.54,37.25c0,0,4.49,25.33,32.85,26.15Z"/>
          <path class="cls-6" d="m99.23,366.25h63.57s2.08,63.29-63.26,63.4"/>
          <path class="cls-7" d="m98.59,366.25v63.4s36.81.89,32.72-37.09c0,0-4.36-25.35-32.72-26.31Z"/>
          <path class="cls-5" d="m99.54,429.65l-.32-63.4s-36.81-.71-32.54,37.25c0,0,4.49,25.33,32.85,26.15Z"/>
          <path class="cls-7" d="m98.62,366.24v63.4s36.81.89,32.72-37.09c0,0-4.36-25.35-32.72-26.31Z"/>
          <path class="cls-5" d="m99.57,429.64l-.32-63.4s-36.81-.71-32.54,37.25c0,0,4.49,25.33,32.85,26.15Z"/>
          <g>
            <path class="cls-7" d="m35.27,127.26l.14-63.4S-1.39,62.89,2.61,100.88c0,0,4.31,25.36,32.67,26.38Z"/>
            <path class="cls-3" d="m34.45,63.86l.18,63.4s36.81.79,32.62-37.18c0,0-4.44-25.34-32.8-26.22Z"/>
          </g>
          <path class="cls-5" d="m98.9,304.03H34.27s-26,.28-33.25,9.72v53.17s56.34,9.54,79.89-18.46c22.43-26.68,17.99-44.44,17.99-44.44Z"/>
          <g>
            <path class="cls-7" d="m36.02,367.95l.14-63.4s-36.8-.97-32.8,37.02c0,0,4.31,25.36,32.67,26.38Z"/>
            <path class="cls-3" d="m35.2,304.55l.18,63.4s36.81.79,32.62-37.18c0,0-4.44-25.34-32.8-26.22Z"/>
          </g>
          <path class="cls-6" d="m0,11.78S9.18,1.1,33.89,1.45c24.71.35,71.16,0,71.16,0,0,0,23.8-2.9,25.26,34.26,0,0,2.85,28.14-40.58,28.64C46.29,64.84,0,74.57,0,74.57V11.78Z"/>
          <g>
            <path class="cls-7" d="m33.25,1.45v63.4s36.81.89,32.72-37.09c0,0-4.36-25.35-32.72-26.31Z"/>
            <path class="cls-3" d="m34.21,64.84l-.32-63.4S-2.92.74,1.35,38.69c0,0,4.49,25.33,32.85,26.15Z"/>
          </g>
          <g>
            <path class="cls-7" d="m34.82,127.48l.14-63.4S-1.85,63.11,2.15,101.1c0,0,4.31,25.36,32.67,26.38Z"/>
            <path class="cls-3" d="m34,64.08l.18,63.4s36.81.79,32.62-37.18c0,0-4.44-25.34-32.8-26.22Z"/>
          </g>
          <path class="cls-6" d="m99.01,190.65s-58.2,11.56-22.51,51.61l-41.41-.35s11.8-57.46,63.92-51.26Z"/>
          <path class="cls-6" d="m99.74,429.59s-58.51,11.16-22.83,51.21l-41.5.21s12.2-57.62,64.33-51.42Z"/>
          <path class="cls-6" d="m133.97,480.63l29.54.17v-49.49s-3.96,36.58-29.54,49.32Z"/>
          <path class="cls-6" d="m133.35,242.1l29.54.17v-49.49s-3.96,36.58-29.54,49.32Z"/>
          <path class="cls-5" d="m98.19,64.36H33.56s-26,.28-33.25,9.72v53.17s56.34,9.54,79.89-18.46c22.43-26.68,17.99-44.44,17.99-44.44Z"/>
          <g>
            <path class="cls-7" d="m35,127.48l.14-63.4S-1.66,63.11,2.34,101.1c0,0,4.31,25.36,32.67,26.38Z"/>
            <path class="cls-3" d="m34.18,64.08l.18,63.4s36.81.79,32.62-37.18c0,0-4.44-25.34-32.8-26.22Z"/>
          </g>
          <path class="cls-6" d="m33.51,189.03s-53.7,10.74-23.17,52.89l-9.2.17-.56-43.84s13.1-10.06,32.92-9.22Z"/>
          <path class="cls-6" d="m35.91,427.9s-55.55,10.79-25.02,52.94l-9.2.17-.56-43.84s14.94-10.11,34.77-9.27Z"/>
          <path class="cls-7" d="m98.19,64.36s62.83,1.4,64.94-62.66h54.68s-58.66,11.57-55.22,63.13l-64.4-.48Z"/>
          <path class="cls-7" d="m98.9,304.03s54.12-2.11,63.99-61.76l55.75-.4s-58.66,11.39-55.22,62.16h-64.52Z"/>
          <path class="cls-5" d="m286.02,1.8h-63.47s-27.78.97-27.13,29.55,25.41,33.19,25.41,33.19h7.37s-5.93-42.41,57.81-62.74Z"/>
          <path class="cls-7" d="m227.57,64.31h63.72s-31.96-1.7-31.86-31.18,28.28-31.82,28.28-31.82c0,0-60.33,12.04-60.14,63Z"/>
          <path class="cls-6" d="m296.06,1.97s-36.89-5.79-36.63,31.57c.26,37.36,36.63,31.18,36.63,31.18V1.97Z"/>
          <path class="cls-5" d="m284.96,241.54h-63.47s-27.78.97-27.13,29.55c.66,28.57,25.41,33.19,25.41,33.19h7.37s-5.93-42.41,57.81-62.74Z"/>
          <path class="cls-7" d="m226.61,304.29h63.72s-31.96-1.7-31.86-31.18c.1-29.47,28.28-31.82,28.28-31.82,0,0-60.33,12.04-60.14,63Z"/>
          <path class="cls-6" d="m295.1,241.54s-36.89-5.79-36.63,31.57c.26,37.36,36.63,31.18,36.63,31.18v-62.74Z"/>
          <path class="cls-5" d="m295.1,303.87s-36.89-5.79-36.63,31.57c.26,37.36,36.63,31.18,36.63,31.18v-62.74Z"/>
          <path class="cls-7" d="m295.1,366.54s-36.89-5.79-36.63,31.57c.26,37.36,36.63,31.18,36.63,31.18v-62.74Z"/>
          <path class="cls-6" d="m162.8,365.89s32.02-5.79,31.8,31.57c-.22,37.36-31.8,31.18-31.8,31.18v-62.74Z"/>
          <path class="cls-5" d="m295.1,481.29v-52.51s-36.89-5.79-36.63,31.57c.06,9.34,2.47,16.21,5.92,20.89"/>
          <path class="cls-5" d="m162.8,366.25s1.81-57.39,56.98-61.96l-56.36-.26-.62,62.22Z"/>
          <path class="cls-7" d="m162.8,366.25h65.49s-31.67.26-32.74-27.26c-1.08-27.52,24.23-34.7,24.23-34.7,0,0-52.48-1.24-56.98,61.96Z"/>
          <path class="cls-5" d="m189.46,480.82c2.99-4.67,5.08-11.55,5.14-20.89.22-37.36-31.8-31.57-31.8-31.57v52.51"/>
          <polygon class="cls-7" points="198.34 242.26 228.5 242.06 228.5 189.22 198.34 242.26"/>
          <path class="cls-5" d="m167.59,123.9l64.74,3.12-12.44,56.17s-48.51,16.94-48.89,16.19-3.41-75.49-3.41-75.49Z"/>
          <path class="cls-6" d="m283.46,64.9s-52.37,3.54-54.96,62.12c-2.58,58.58-57.5,62.2-57.5,62.2,0,0,24.86,32.24,16.15,53.04h11.19s35.55-22.49,29.57-61.95c0,0-7.76-32.31,55.55-53.29v-62.12Z"/>
          <path class="cls-7" d="m283.2,189.86s-49.37,7.44-54.7,52.2l40.42-.28,14.28-51.92Z"/>
          <path class="cls-5" d="m296.06,64.64s-37.3-5.79-37.04,31.57c.26,37.36,37.04,31.18,37.04,31.18v-62.74Z"/>
          <path class="cls-7" d="m296.06,127.32s-37.3-5.79-37.04,31.57c.26,37.36,37.04,31.18,37.04,31.18v-62.74Z"/>
          <path class="cls-6" d="m162.28,126.66s32.38-5.79,32.15,31.57-32.15,31.18-32.15,31.18v-62.74Z"/>
          <path class="cls-5" d="m296.06,242.06v-52.51s-37.3-5.79-37.04,31.57c.07,9.34,2.5,16.21,5.99,20.89"/>
          <path class="cls-5" d="m162.28,127.02s1.83-57.39,57.62-61.96l-56.99-.26-.62,62.22Z"/>
          <path class="cls-7" d="m162.28,127.02h66.22s-32.02.26-33.11-27.26,24.51-34.7,24.51-34.7c0,0-53.07-1.24-57.62,61.96Z"/>
          <path class="cls-5" d="m189.23,242.26c3.03-4.67,5.14-12.22,5.2-21.56.23-37.36-32.15-31.57-32.15-31.57l.61,53.13"/>
        </g>
      </g>
    </g>
  </g>
</svg>