<?xml version="1.0" encoding="UTF-8"?>
<svg id="Calque_2" data-name="Calque 2" xmlns="http://www.w3.org/2000/svg" xmlns:xlink="http://www.w3.org/1999/xlink" viewBox="0 0 264.55 264.55">
  <defs>
    <style>
      .cls-1 {
        fill: none;
      }

      .cls-2 {
        clip-path: url(#clippath);
      }

      .cls-3 {
        fill: #eab859;
      }

      .cls-4 {
        fill: #fff;
      }

      .cls-5 {
        fill: #7f1f1d;
      }

      .cls-6 {
        fill: #bf3535;
      }

      .cls-7 {
        fill: #cc553f;
      }

      .cls-8 {
        fill: #d57845;
      }

      .cls-9 {
        opacity: .2;
      }
    </style>
    <clipPath id="clippath">
      <path class="cls-1" d="m34.02,204.12c7.52-44.29,26.44-85.35,53.96-122.76H13.6v-29.88h113.73v24.08c-29.88,38.48-48.59,81.7-55.04,128.57h-38.27Zm99.76-74.17v-4.3c0-44.29,17.63-76.97,57.19-76.97s57.4,32.68,57.4,76.97v4.3c0,44.5-16.98,76.97-57.4,76.97s-57.19-32.46-57.19-76.97Zm77.83.21v-4.3c0-34.4-3.65-48.16-20.64-48.16s-20.42,13.76-20.42,48.16v4.3c0,33.97,4.3,47.73,20.42,47.73,16.99,0,20.64-13.76,20.64-47.73Z"/>
    </clipPath>
  </defs>
  <g id="Calque_1-2" data-name="Calque 1">
    <g class="cls-9">
      <g class="cls-2">
        <g>
          <path class="cls-6" d="m264.4,237.59v8.98c-2.79-.22-5.14,1-7.41,2.38-.98.6-1.8,1.47-3.01,1.64-.27.04-.51.21-.5.47,0,1.1-.82,1.77-1.31,2.61-1.43,2.43-2.97,4.81-2.72,7.82-2.99,0-5.99,0-8.98,0-.1-1.8.33-3.46.83-5.2.46-1.58,1.29-3.15,1.2-4.9,0-.17.17-.36.29-.53,1.27-1.76,2.53-3.52,3.82-5.27.39-.53,1.18-.96.99-1.63-.22-.8-1.15-.29-1.75-.51-2.42-.88-4.51-2.39-6.87-3.37-1.62-.91-3.16-1.91-4.5-3.25-.76-.76-1.73-1.41-2.9-1.54-.07-.42-.25-.79-.6-1.04-2.11-1.48-3.77-3.42-5.38-5.4-.29-.36-.61-.57-1.04-.21-.03-.75-.08-1.5-.71-2.05-2.24-1.96-3.29-4.74-4.87-7.15-1.27-1.93-2.08-4.13-2.57-6.43-.31-1.45-1.4-2.69-1.76-4.02-.68-2.52-1.2-5.14-1.14-7.82.08-3.66.03-7.31.01-10.97,0-.72.13-1.39.3-2.08.73-2.93,1.99-5.75,2.48-8.68.45-2.7,2.26-4.76,2.61-7.49.23-1.78,1.57-3.43,3.01-4.77.9-.84,1.71-1.8,1.82-3.13.72-.07,1.02-.67,1.38-1.15,1.11-1.47,2.32-2.87,3.75-4.04.71-.58,1.46-1.08,1.61-2.07.67-.09,1.4.22,2-.37,1.64-1.63,3.4-3.1,5.51-4.1,2.8-1.38,5.27-3.52,8.57-3.79.26-.02.39-.33.2-.43-1.02-.57-1.14-1.8-1.93-2.52-1.36-1.25-1.86-3.09-3.08-4.44-.24-.27-.33-.67-.29-1.06.06-.64-.18-1.22-.41-1.8-1.02-2.55-1.78-5.11-1.63-7.94.13-2.48.79-4.8,1.53-7.11.31-.97.37-2.03.96-2.93,1.43-2.16,2.82-4.34,4.52-6.31.5-.59.41-1.14-.52-1.08-.79.04-1.43-.33-2.13-.58-1.88-.68-3.4-2.04-5.3-2.68h0c-.09-.08-.17-.16-.26-.24-1.92-.91-3.62-2.13-5.14-3.6-.71-.69-1.5-1.16-2.51-1.2-.15-.49-.38-.94-.79-1.24-1.92-1.41-3.48-3.18-4.98-5.01-.32-.39-.67-.76-1.26-.64-.03-.12-.03-.28-.1-.35-2.64-2.37-4.38-5.36-5.85-8.53-.19-.41-.49-.7-.9-.79-.86-.19-1.2-.78-1.43-1.54-.87-2.8-1.91-5.56-2.58-8.41-.41-1.71-1.14-3.38-1.14-5.18,0-4.52,0-9.05,0-13.57,0-.53,0-1.06.12-1.6.54-2.49,1.47-4.86,2.22-7.29.38-1.22.51-2.48.98-3.69.84-2.17,2.17-4.08,3.17-6.14.93-1.93,2.07-3.58,3.56-5.08.65-.65,1.02-1.51.96-2.48.48.1.87.03,1.16-.45.91-1.5,2.27-2.58,3.54-3.75.87-.8,2.25-1.22,2.3-2.72,1.12.14,1.96-.32,2.7-1.15.8-.89,1.73-1.63,2.81-2.2.53-.28,1.12-.57,1.41-1.17.63-.4,1.22-.91,1.9-1.17,2.07-.81,3.72-2.68,6.25-2.36.78.1.42-.41.15-.77-1.17-1.59-2.51-3.03-3.59-4.72-.9-1.41-1.45-2.87-2.04-4.41-1.01-2.62-1.68-5.24-1.68-8.03h8.98c-.06,1.55.17,3,.8,4.46.89,2.07,2.54,3.67,3.36,5.77.1.25.37.51.61.59,1.43.51,2.51,1.59,3.82,2.3,1.97,1.07,3.96,2.1,6.33,1.83,0,2.99,0,5.99,0,8.98-3.57-.48-6.92.8-10.36,1.3-.8.12-1.44.81-2.35.71-1.3-.14-2.4.41-3.49,1.08-1.13.7-1.83,1.85-3.4,2.2-1.24.28-2.88.94-3.59,2.51-.18.39-.74.77-1.18.86-1.49.3-2.34,1.41-3.2,2.43-.78.92-1.67,1.73-2.44,2.64-2.34,2.77-5.09,5.27-6.14,8.93-.05.19-.23.34-.33.52-1.13,2.18-2.71,4.19-2.4,6.87.04.37.06.81-.33,1-.71.35-.71.96-.66,1.59.08,1.06-.24,2.05-.54,3.04-.19.63-.49,1.23-.46,1.92.17,4.66-.56,9.38,1,13.94.64,1.89.83,3.89,1.63,5.76.69,1.6,1.9,2.95,2.3,4.63.56,2.36,2.25,4.02,3.77,5.56,1.65,1.67,3.61,3.05,5.21,4.85,1.97,2.21,4.65,3.56,7.09,5.19.81.54,1.99.52,2.77,1.26.59.56,1.37.75,2.05,1.13,2.06,1.17,4.43,1.12,6.62,1.81,3.02.95,6.21,1.36,9.43,1.09,0,2.99,0,5.99,0,8.98-1.77-.13-3.37.27-5.04.96-1.86.77-2.57,2.92-4.58,3.38-.13.03-.26.33-.29.52-.13.91-.72,1.57-1.26,2.24-2.63,3.29-3.64,7.09-2.4,11.06,1.11,3.55,2.94,6.8,6.43,8.86,2.56,1.52,5.04,3.01,8.13,2.9,0,2.66,0,5.32,0,7.98-2.24.95-4.73.86-6.98,1.71-.35.13-.67.34-1.05.28-2.26-.34-4.22.9-6.33,1.31-2.92.55-5.33,2.55-7.96,3.93-.87.45-1.55,1.24-2.38,1.76-3.47,2.19-6.07,5.27-8.72,8.32-.16.19-.31.4-.4.62-.57,1.31-1.42,2.43-2.39,3.44-.57.6-.98,1.38-.82,1.98.46,1.67-.5,3-1.13,4.16-.99,1.79-.6,3.8-1.52,5.63-.61,1.22-.81,2.98-1,4.52-.38,3.17-.18,6.38-.09,9.57,0,.12.1.23.12.35.46,2.13,1.05,4.24,1.45,6.37.36,1.93,1.15,3.58,1.98,5.29.4.82,1.27,1.51,1.26,2.37-.02,1.45.94,2.22,1.67,3.18.48.62,1.04,1.19,1.43,1.87,1.72,3.01,4.34,5.2,6.87,7.41,2.3,2.02,4.85,3.7,7.69,5.08,2.62,1.28,5.15,2.4,8.01,3.05,3.76.86,7.44,1.9,11.35,1.59Z"/>
          <path class="cls-7" d="m264.4,237.59c-3.9.31-7.59-.73-11.35-1.59-2.86-.65-5.39-1.77-8.01-3.05-2.84-1.38-5.39-3.06-7.69-5.08-2.52-2.21-5.15-4.41-6.87-7.41-.38-.67-.95-1.24-1.43-1.87-.73-.96-1.68-1.73-1.67-3.18,0-.86-.86-1.55-1.26-2.37-.83-1.71-1.62-3.37-1.98-5.29-.4-2.13-.99-4.24-1.45-6.37-.03-.12-.12-.23-.12-.35-.09-3.19-.29-6.39.09-9.57.18-1.53.38-3.3,1-4.52.92-1.83.53-3.83,1.52-5.63.64-1.15,1.59-2.49,1.13-4.16-.16-.6.24-1.38.82-1.98.97-1.01,1.82-2.13,2.39-3.44.1-.22.24-.44.4-.62,2.64-3.05,5.25-6.13,8.72-8.32.83-.53,1.52-1.31,2.38-1.76,2.63-1.38,5.04-3.38,7.96-3.93,2.12-.4,4.07-1.65,6.33-1.31.38.06.7-.15,1.05-.28,2.25-.85,4.75-.76,6.98-1.71.01,2.78.02,5.55.05,8.33,0,.41-.08.73-.47.92-1.81-.55-3.64-.27-5.4.06-1.66.32-3.43.54-4.81,1.77-1.05.95-2.27,1.66-3.55,2.27-1.29.62-2.66,1.12-3.67,2.19-.65.69-1.49,1.05-2.34,1.38-.82.32-1.56.61-1.94,1.55-.23.57-.77,1.11-1.3,1.46-2.33,1.55-3.08,4.39-5.13,6.16-.11.09-.11.31-.15.47-.44,1.59-1.18,3.06-1.43,4.76-.32,2.19-1.44,4.31-1.62,6.45-.43,5.23-.49,10.51,1.89,15.45.59,1.23,1.19,2.47,1.66,3.73.9,2.41,2.7,4.27,4.17,6.2,2.83,3.71,6.66,6.41,10.98,8.45,4.51,2.13,9.07,3.57,14.09,3.23v8.98Z"/>
          <path class="cls-4" d="m4.02,264.52c-1.16,0-2.33-.03-3.49.01-.43.01-.59-.07-.51-.51.04-.2,0-.41,0-.62C.03,176.05.03,88.69,0,1.34,0,.34.18.12,1.21.12c72.77.03,145.54.03,218.3.03,0,.32-.02.64-.02.97-2.74.02-5.47.05-8.21.07-9.89,0-19.79,0-29.68,0-3,0-5.99,0-8.99,0-2.99,0-5.98,0-8.97,0-2.99,0-5.99,0-8.98,0-2.99,0-5.99,0-8.98,0-3.07-.01-6.13-.03-9.2-.03-.26,0-.71-.14-.72.25-.02,1.09-.81.72-1.34.73-6.22.03-12.44.04-18.66.05-2.66,0-5.32,0-7.98,0-2.99,0-5.99,0-8.98,0-2.85-.01-5.7-.02-8.56-.05-.35,0-.64.08-.91.29-.31-.22-.66-.3-1.05-.29-2.57.02-5.14.03-7.7.04-8.34-.01-16.69-.03-25.03-.03-1.56,0-3.22-.37-4.43,1.08-3.07-.16-6.14-.08-9.21-.05-2.99,0-5.98,0-8.97,0-2.99,0-5.99,0-8.98,0-2.99,0-5.99,0-8.98,0-4.35-.01-8.7-.02-13.05-.05-.58,0-.92.07-.92.79.04,4.72.05,9.45.06,14.17,0,2.99,0,5.99-.01,8.98,0,2.99,0,5.99,0,8.98,0,2.99,0,5.98,0,8.97,0,3,0,6,0,9-.01,8.67-.02,17.33-.03,26,0,.24-.11.58.16.68,1.13.43.73,1.43.88,2.23l.1,9.01c0,.17-.01.33-.02.5-.02.03-.05.07-.04.09.02.06.05.12.08.18,0,1.88,0,3.77.01,5.65-.24.48-.2.98-.11,1.49,0,.19,0,.38-.01.57-.07.33-.09.66.05.99-.01,2.17-.03,4.33-.04,6.5-.05.05-.06.11-.02.17-.03.68-.13,1.36.05,2.04-.02,2.91-.04,5.82-.06,8.73.03,1.03.08,2.07.08,3.1,0,8.64,0,17.28,0,25.91-.18.3-.07.59.04.88-.02.19-.04.39-.06.58l-.05.06.04.07c.01,2.45.02,4.89.03,7.34-.11.13-.12.25,0,.37.02.19.04.38.06.57-.25,1-.06,2.03-.13,3.04-.05.05-.05.11-.01.17-.02.94-.04,1.88-.04,2.82,0,.27-.1.67.23.75,1,.25.69,1.06.8,1.69,0,2.82,0,5.65,0,8.47,0,3,0,6,0,9-.51.64,0,1.31,0,1.96-.03,9.32,0,18.64,0,27.96,0,3,0,6,0,9v8.97c0,2.99,0,5.99,0,8.98-.01,2.04-.03,4.07-.04,6.11,0,.24,0,.67.1.7,1.19.37.81,1.38.94,2.17-.01,4.99-.03,9.97-.04,14.96Z"/>
          <path class="cls-8" d="m264.4,228.61c-5.02.34-9.59-1.1-14.09-3.23-4.32-2.04-8.14-4.75-10.98-8.45-1.47-1.93-3.27-3.78-4.17-6.2-.47-1.26-1.07-2.51-1.66-3.73-2.39-4.94-2.33-10.22-1.89-15.45.18-2.14,1.29-4.27,1.62-6.45.25-1.69.99-3.16,1.43-4.76.04-.16.05-.38.15-.47,2.05-1.77,2.8-4.61,5.13-6.16.53-.35,1.07-.89,1.3-1.46.38-.95,1.11-1.23,1.94-1.55.85-.33,1.68-.69,2.34-1.38,1.01-1.07,2.38-1.57,3.67-2.19,1.28-.61,2.49-1.33,3.55-2.27,1.37-1.24,3.14-1.46,4.81-1.77,1.76-.33,3.6-.61,5.4-.06.62.74.58,1.59.34,2.43-.11.37-.19.75-.11,1.09.44,1.72.17,3.45.19,5.18-2.83-.12-5.5.44-7.99,1.85-.3.17-.73.2-1.08.15-1.11-.16-1.8.39-2.36,1.25-.24.37-.39.88-.89.98-2.14.45-3.81,1.86-4.97,3.42-1.83,2.47-4.24,4.63-4.87,7.93-.24,1.26-1.2,2.37-.3,3.72.1.15-.03.48-.09.71-1.14,4.99-.27,9.87,2.05,14.18,1.7,3.15,3.43,6.66,7.04,8.38.07.03.13.1.19.16,4.07,3.66,8.92,5.13,14.3,5.18v8.98Z"/>
          <path class="cls-3" d="m264.4,219.63c-5.37-.05-10.23-1.52-14.3-5.18-.06-.06-.12-.13-.19-.16-3.61-1.72-5.34-5.23-7.04-8.38-2.32-4.31-3.2-9.19-2.05-14.18.05-.24.19-.56.09-.71-.9-1.35.06-2.46.3-3.72.63-3.3,3.04-5.46,4.87-7.93,1.16-1.56,2.83-2.97,4.97-3.42.5-.1.65-.61.89-.98.56-.86,1.25-1.41,2.36-1.25.35.05.79.02,1.08-.15,2.49-1.41,5.16-1.97,7.99-1.85,0,3,0,6,0,9-2.6-.24-4.82.79-6.94,2.1-.91.56-1.65,1.5-2.62,1.8-.86.26-1.25.57-1.42,1.39-.07.34-.33.67-.59.93-1.67,1.62-2.36,3.81-3.22,5.85-.44,1.04-.52,2.5.09,3.51.74,1.22.97,2.59,1.55,3.85.65,1.41,1.39,2.74,2.33,3.94.82,1.05.81,2.95,2.79,2.9.08,0,.16.18.26.25,2.63,1.92,5.32,3.69,8.8,3.4v8.98Z"/>
          <path class="cls-4" d="m240.47,261.49c2.99,0,5.99,0,8.98,0,2.73.01,5.46.03,8.19.04.26,0,.72.13.73-.24.02-1.07.79-.73,1.33-.74,1.57-.03,3.14-.01,4.71-.01,0,1.16-.03,2.33.01,3.49.01.43-.07.59-.51.51-.2-.04-.41,0-.62,0H8.01c-.15-.81.19-1.03,1-1.02,3.32.03,6.64,0,9.97-.02,2.66,0,5.33,0,7.99,0,2.99,0,5.99,0,8.98,0,2.99,0,5.98,0,8.97,0,3,0,5.99,0,8.99,0,9.97,0,19.95,0,29.92,0,.41.01.82.07,1.23.03,2.52-.24,5.2.73,7.53-.99.06-.04.16-.03.24-.05,2.99,0,5.98,0,8.97.01,2.99,0,5.99,0,8.98,0,2.99,0,5.99,0,8.98,0h28.91c2.99,0,5.99,0,8.98,0,2.99,0,5.99,0,8.98,0,2.73.01,5.46,0,8.19.06.85.02.82-.44.81-1,2.99-.02,5.97-.04,8.96-.06,9.97,0,19.95,0,29.92,0,3,0,6,0,9,0,2.66,0,5.32,0,7.98,0,2.99,0,5.99,0,8.98,0Z"/>
          <path class="cls-4" d="m263.37,180.72c0-3,0-6,0-9-.02-1.73.25-3.46-.19-5.18-.09-.34,0-.72.11-1.09.24-.84.28-1.7-.34-2.43.39-.19.48-.51.47-.92-.03-2.78-.03-5.55-.05-8.33,0-2.66,0-5.32,0-7.98.01-6.68.03-13.35.04-20.03,0-.34.02-.77-.36-.84-.81-.14-.63-.72-.64-1.22-.02-2.61-.03-5.22-.04-7.83,0-2.99,0-5.99,0-8.98,0-2.99,0-5.99,0-8.98,0-2.99,0-5.98,0-8.97,0-3,0-6,0-9,0-9.64,0-19.28,0-28.92,0-3,0-6,0-9-.8-1.01-1.06-2.13-.99-3.44.1-1.84,0-3.69-.01-5.54,0-2.99,0-5.98,0-8.98,0-2.99,0-5.99,0-8.98.01-4.99.03-9.97.04-14.96,1,0,2.38-.39,2.88.11.5.5.11,1.89.11,2.88v204.52c-.98.21-1.01-.34-1.01-1.11.01-8.61,0-17.22-.02-25.82Z"/>
          <path class="cls-5" d="m263.37,180.72c.01,8.61.03,17.22.02,25.82,0,.77.03,1.32,1.01,1.11v2.99c-3.48.29-6.17-1.48-8.8-3.4-.1-.07-.18-.26-.26-.25-1.98.05-1.96-1.85-2.79-2.9-.94-1.2-1.68-2.53-2.33-3.94-.58-1.26-.81-2.63-1.55-3.85-.61-1.01-.53-2.47-.09-3.51.86-2.04,1.55-4.23,3.22-5.85.26-.25.52-.59.59-.93.17-.82.56-1.13,1.42-1.39.96-.3,1.71-1.24,2.62-1.8,2.12-1.31,4.35-2.34,6.94-2.1Z"/>
          <path class="cls-8" d="m219.49,1.11c0-.32.02-.64.02-.97,2.99,0,5.99,0,8.98,0,.15,2.66-.2,5.29.71,7.96,1.67,4.94,4.17,9.36,7.28,13.49-.29.6-.88.9-1.41,1.17-1.08.57-2.01,1.31-2.81,2.2-.74.83-1.58,1.29-2.7,1.15-1.39-1.94-3.28-3.55-3.98-5.94-.17-.58-.4-1.08-.74-1.55-1.26-1.77-2.31-3.65-2.54-5.85-.09-.9-.33-1.74-.75-2.47-1.67-2.86-2.21-5.95-2.07-9.2Z"/>
          <path class="cls-7" d="m236.48,21.6c-3.12-4.12-5.61-8.55-7.28-13.49-.9-2.67-.56-5.31-.71-7.96h8.98c0,2.8.67,5.41,1.68,8.03.59,1.54,1.15,2.99,2.04,4.41,1.07,1.69,2.42,3.13,3.59,4.72.26.36.63.86-.15.77-2.53-.32-4.18,1.55-6.25,2.36-.68.27-1.27.78-1.9,1.17Z"/>
          <path class="cls-5" d="m261.41.14c-.01,4.99-.03,9.97-.04,14.96-2.36.27-4.36-.76-6.33-1.83-1.3-.71-2.38-1.79-3.82-2.3-.25-.09-.52-.35-.61-.59-.82-2.1-2.47-3.7-3.36-5.77-.63-1.46-.86-2.92-.8-4.46,4.99,0,9.98,0,14.96,0Z"/>
          <path class="cls-5" d="m264.4,260.53c-1.57,0-3.14-.02-4.71.01-.54.01-1.3-.33-1.33.74,0,.37-.47.24-.73.24-2.73,0-5.46-.02-8.19-.04-.25-3.01,1.29-5.39,2.72-7.82.49-.84,1.32-1.51,1.31-2.61,0-.26.23-.44.5-.47,1.21-.17,2.03-1.04,3.01-1.64,2.27-1.38,4.62-2.6,7.41-2.38v13.97Z"/>
          <path class="cls-5" d="m18.97,263.48c-3.32.01-6.64.06-9.97.02-.81,0-1.14.21-1,1.02h-3.99c.01-4.99.03-9.97.04-14.96,1.27-.08,2.42.36,3.59.8,2.18.81,3.58,2.99,5.99,3.4.1.02.24.14.27.24.56,1.67,1.9,2.82,3.04,3.97,1.61,1.62,2.36,3.3,2.03,5.51Z"/>
          <path class="cls-5" d="m214.52,261.49c-9.97,0-19.95,0-29.92,0-.04-2.23-.08-4.47-.12-6.7.13-.28.13-.53-.12-.75-.01-1.16-.31-2.22-.75-3.32-1.52-3.76-1.99-7.91-4.26-11.4-1.48-2.27-2.31-4.93-4.4-6.83-.93-.85-1.53-1.95-1.4-3.3.2-1.47,1.24-2.4,2.22-3.35.88-.86,1.82-1.91,1.84-3.01.02-1.36.56-2.38,1.14-3.45,1.51-2.79,2.23-5.85,3.08-8.87,1.02-3.66,2.02-7.29,1.78-11.14-.26-4.2.43-8.42-.71-12.61-.89-3.27-1.75-6.58-2.99-9.69-1.5-3.76-3.33-7.46-6.11-10.56-.63-.7-1.18-1.5-1.4-2.46.26-1.13.54-2.24,1.47-3.05,1.35-1.2,2.34-2.63,2.89-4.38.2-.64.68-1.23,1.16-1.72,1.51-1.56,2.57-3.31,2.73-5.53.02-.32.18-.64.32-.93.64-1.35,1-2.81,1.48-4.22.21-.6.2-1.07-.44-1.34-.48-.2-.47-.56-.28-.92.88-1.68.85-3.5.85-5.32,0-2.74-.03-5.48,0-8.22.04-4.14-.82-8.09-2.16-11.98-.92-2.66-1.55-5.42-3.09-7.84-1.57-2.46-2.43-5.38-4.76-7.35-.81-.68-1.01-1.57-.96-2.57-.1-1,.33-1.83,1.07-2.4,2.06-1.59,2.84-4,4.06-6.11,1.33-2.33,2.38-4.76,3.17-7.37,1.39-4.63,2.9-9.14,2.79-14.12-.09-4.27-.41-8.4-1.65-12.53-.76-2.52-2.2-4.78-2.59-7.42-.37-2.48-1.9-4.48-2.97-6.66-.91-1.86-1.99-3.63-3.52-5.09-.75-.71-1.41-1.54-1.36-2.69-.02-.93.21-1.71.84-2.49.65-.81,1.61-1.39,2.05-2.3,1.32-2.7,2.87-5.27,4.36-7.86.79-1.38.67-2.93,1.33-4.32,1.2-2.54,1.52-5.36,2.15-8.08.61-2.64.18-5.37.28-8.05,9.89,0,19.79,0,29.68,0,.54,1.19.14,2.45.25,3.67.19,2.09-.58,4.32.96,6.2.09.11.06.32.08.48.38,2.93,1.62,5.62,2.46,8.41.85,2.78,2.9,5.03,4.13,7.67.28.6.76,1.06,1.12,1.6.83,1.22,2.38,2.04,2.27,3.82.06.98-.31,1.83-.96,2.48-1.49,1.5-2.63,3.15-3.56,5.08-1,2.07-2.33,3.97-3.17,6.14-.47,1.2-.61,2.47-.98,3.69-.75,2.42-1.68,4.8-2.22,7.29-.12.54-.12,1.07-.12,1.6,0,4.52,0,9.05,0,13.57,0,1.81.73,3.47,1.14,5.18.67,2.85,1.71,5.61,2.58,8.41.23.76.58,1.35,1.43,1.54.41.09.71.38.9.79,1.46,3.17,3.21,6.16,5.85,8.53.08.07.07.23.1.35.14,1.27-.46,2.22-1.25,3.13-.6.68-1.27,1.29-1.76,2.09-1.27,2.09-2.27,4.32-3.62,6.37-.51.78-1.28,1.69-1.3,2.55-.03,2.21-1.23,4.02-1.67,6.06-.57,2.7-1.56,5.3-1.46,8.15.14,3.77.05,7.56.02,11.33,0,.8.08,1.58.34,2.32.63,1.82.89,3.73,1.56,5.56,1.01,2.75,1.32,5.72,3.08,8.22,1.42,2.02,2.07,4.52,3.76,6.38,1.12,1.24,2.23,2.45,2.49,4.18-.12,1.33-.92,2.29-1.82,3.13-1.44,1.34-2.77,2.99-3.01,4.77-.36,2.73-2.17,4.79-2.61,7.49-.49,2.94-1.75,5.76-2.48,8.68-.17.69-.31,1.36-.3,2.08.02,3.66.07,7.32-.01,10.97-.06,2.68.46,5.3,1.14,7.82.36,1.33,1.45,2.57,1.76,4.02.49,2.3,1.3,4.5,2.57,6.43,1.58,2.41,2.64,5.19,4.87,7.15.63.55.68,1.3.71,2.05-.15,1.14-.59,2.1-1.51,2.85-.53.43-1,.94-1.34,1.6-.93,1.79-1.97,3.51-2.94,5.28-.98,1.77-2.07,3.49-2.31,5.58-.03.31-.26.6-.37.91-.51,1.41-.92,2.85-1.54,4.21-.8,1.77.36,3.43.07,5.23-.38,2.35-.1,4.8-.1,7.2Z"/>
          <path class="cls-7" d="m261.37,24.08c0,2.99,0,5.98,0,8.98-.83,0-1.66.04-2.49,0-1.92-.09-3.79.04-5.57.92-2.17,1.08-4.38,2.07-6.57,3.1-2.02.95-3.4,2.87-5.55,3.63-.14.05-.25.22-.34.36-.71,1.15-1.71,2.06-2.72,2.88-1.84,1.5-2.95,3.58-4.11,5.5-1.21,2-2.41,4.13-3.07,6.43-.59,2.05-1.34,4.1-1.44,6.25-.13,2.9-.03,5.81-.03,8.72,0,.33-.03.69.09.98,1.02,2.6,1.67,5.33,3,7.81.9,1.68,1.25,3.75,3.27,4.65.14.06.25.22.32.36,1.29,2.61,3.54,4.42,5.71,6.13,2.53,2,5.37,3.7,8.46,4.84,3.33,1.24,6.61,2.67,10.3,2.31.58-.06,1.16,0,1.74,0,0,2.99,0,5.99,0,8.98-3.22.28-6.41-.14-9.43-1.09-2.19-.69-4.56-.64-6.62-1.81-.67-.38-1.46-.57-2.05-1.13-.78-.74-1.96-.72-2.77-1.26-2.44-1.62-5.12-2.98-7.09-5.19-1.6-1.8-3.56-3.18-5.21-4.85-1.52-1.53-3.21-3.2-3.77-5.56-.4-1.68-1.61-3.03-2.3-4.63-.8-1.87-.99-3.87-1.63-5.76-1.55-4.56-.83-9.28-1-13.94-.02-.69.27-1.29.46-1.92.3-.99.63-1.97.54-3.04-.05-.63-.05-1.24.66-1.59.39-.19.37-.64.33-1-.31-2.68,1.27-4.7,2.4-6.87.09-.18.27-.33.33-.52,1.06-3.66,3.8-6.16,6.14-8.93.77-.92,1.66-1.72,2.44-2.64.86-1.02,1.72-2.13,3.2-2.43.44-.09,1-.46,1.18-.86.71-1.57,2.36-2.24,3.59-2.51,1.57-.35,2.27-1.5,3.4-2.2,1.09-.67,2.18-1.22,3.49-1.08.9.1,1.55-.6,2.35-.71,3.45-.5,6.79-1.78,10.36-1.3Z"/>
          <path class="cls-3" d="m223.74,164.03c-.26-1.73-1.37-2.94-2.49-4.18-1.69-1.86-2.34-4.36-3.76-6.38-1.76-2.5-2.07-5.48-3.08-8.22-.67-1.83-.93-3.74-1.56-5.56-.26-.74-.35-1.52-.34-2.32.03-3.78.12-7.56-.02-11.33-.11-2.85.88-5.45,1.46-8.15.43-2.04,1.64-3.85,1.67-6.06.01-.86.78-1.77,1.3-2.55,1.35-2.05,2.35-4.28,3.62-6.37.48-.8,1.16-1.4,1.76-2.09.79-.91,1.39-1.86,1.25-3.13.59-.12.94.25,1.26.64,1.5,1.83,3.06,3.6,4.98,5.01.41.3.64.76.79,1.24-1.26,2.06-3.37,3.59-3.94,6.08-.18.79-.58,1.44-.97,2.13-1.07,1.86-2.35,3.64-2.17,5.97.03.39-.14.82-.31,1.19-.77,1.76-1,3.67-1.37,5.52-.66,3.28-.19,6.62-.28,9.94,0,.28.11.56.19.84.62,2.34.91,4.75,1.65,7.09.46,1.46.87,2.91,1.56,4.27.39.77,1.1,1.45,1.28,2.25.62,2.83,2.7,4.69,4.28,6.89-.15,1-.9,1.49-1.61,2.07-1.43,1.17-2.63,2.56-3.75,4.04-.36.48-.66,1.08-1.38,1.15Z"/>
          <path class="cls-8" d="m230.48,156.78c-1.58-2.2-3.67-4.06-4.28-6.89-.18-.8-.89-1.48-1.28-2.25-.69-1.36-1.1-2.81-1.56-4.27-.74-2.34-1.03-4.75-1.65-7.09-.07-.28-.19-.56-.19-.84.09-3.31-.38-6.66.28-9.94.37-1.85.6-3.76,1.37-5.52.16-.37.34-.8.31-1.19-.18-2.33,1.1-4.11,2.17-5.97.39-.68.79-1.33.97-2.13.58-2.49,2.68-4.02,3.94-6.08,1.01.04,1.8.51,2.51,1.2,1.52,1.47,3.22,2.69,5.14,3.6.09.08.17.16.26.24,0,0,0,0,0,0-.3.36-.99.27-1.01.96-.02.72-.51,1.2-.99,1.67-.45.43-.89.86-1.17,1.44-1.2,2.45-2.43,4.89-3.65,7.33-.63,1.27-1.07,2.66-1.16,4.01-.18,2.68-.04,5.39,0,8.09.02,1.16-.09,2.31.11,3.47.51,2.89,1.87,5.46,3.07,8.09.61,1.34.96,2.89,2.19,3.83,1.29.99,1.76,2.34,2.12,3.79-2.11,1-3.88,2.46-5.51,4.1-.6.6-1.33.29-2,.37Z"/>
          <path class="cls-7" d="m237.99,152.3c-.37-1.45-.83-2.8-2.12-3.79-1.23-.93-1.58-2.49-2.19-3.83-1.2-2.62-2.55-5.19-3.07-8.09-.21-1.16-.09-2.32-.11-3.47-.04-2.7-.18-5.41,0-8.09.09-1.35.53-2.74,1.16-4.01,1.22-2.44,2.45-4.88,3.65-7.33.28-.58.72-1.01,1.17-1.44.48-.47.97-.94.99-1.67.02-.69.72-.6,1.01-.96,1.89.64,3.42,2,5.3,2.68.7.25,1.33.63,2.13.58.93-.05,1.03.5.52,1.08-1.69,1.97-3.09,4.15-4.52,6.31-.59.9-.65,1.95-.96,2.93-.74,2.31-1.4,4.64-1.53,7.11-.15,2.83.61,5.39,1.63,7.94.23.58.47,1.16.41,1.8-.04.39.05.79.29,1.06,1.22,1.35,1.72,3.19,3.08,4.44.79.72.91,1.95,1.93,2.52.19.11.06.41-.2.43-3.3.26-5.77,2.4-8.57,3.79Z"/>
          <path class="cls-5" d="m262.37,115.88c.01,2.61.02,5.22.04,7.83,0,.5-.17,1.08.64,1.22.38.07.36.49.36.84-.02,6.68-.03,13.35-.04,20.03-3.1.1-5.57-1.38-8.13-2.9-3.48-2.06-5.31-5.31-6.43-8.86-1.24-3.96-.24-7.77,2.4-11.06.54-.68,1.12-1.33,1.26-2.24.03-.19.16-.48.29-.52,2-.46,2.72-2.61,4.58-3.38,1.67-.69,3.27-1.09,5.04-.96Z"/>
          <path class="cls-3" d="m214.52,261.49c0-2.41-.27-4.86.1-7.2.29-1.8-.87-3.46-.07-5.23.62-1.36,1.03-2.81,1.54-4.21.11-.31.33-.6.37-.91.23-2.09,1.33-3.81,2.31-5.58.97-1.76,2.02-3.49,2.94-5.28.34-.66.81-1.17,1.34-1.6.93-.76,1.36-1.71,1.51-2.85.43-.36.75-.15,1.04.21,1.61,1.98,3.27,3.91,5.38,5.4.35.25.53.62.6,1.04-.21.4-.35.86-.64,1.19-1.53,1.74-3.15,3.4-3.59,5.82-.06.33-.4.61-.62.91-1.05,1.46-1.88,3.09-2.16,4.82-.42,2.57-1.07,5.06-1.7,7.57-.18.74-.74,1.6-.16,2.26.99,1.11.74,2.38.8,3.63-3,0-6,0-9,0Z"/>
          <path class="cls-3" d="m222.55,33.04c.11-1.78-1.44-2.6-2.27-3.82-.36-.53-.84-.99-1.12-1.6-1.23-2.64-3.29-4.88-4.13-7.67-.85-2.79-2.09-5.48-2.46-8.41-.02-.16,0-.37-.08-.48-1.54-1.88-.77-4.12-.96-6.2-.11-1.22.29-2.48-.25-3.67,2.74-.02,5.47-.05,8.21-.07-.14,3.25.4,6.34,2.07,9.2.43.73.66,1.57.75,2.47.23,2.2,1.27,4.08,2.54,5.85.33.47.57.97.74,1.55.7,2.38,2.58,4,3.98,5.94-.05,1.5-1.43,1.93-2.3,2.72-1.28,1.17-2.63,2.25-3.54,3.75-.29.48-.68.55-1.16.45Z"/>
          <path class="cls-8" d="m223.51,261.49c-.06-1.25.2-2.52-.8-3.63-.59-.65-.03-1.52.16-2.26.62-2.51,1.28-5.01,1.7-7.57.28-1.73,1.11-3.36,2.16-4.82.22-.3.56-.58.62-.91.43-2.42,2.06-4.09,3.59-5.82.29-.33.43-.79.64-1.19,1.17.13,2.15.78,2.91,1.54,1.34,1.34,2.87,2.34,4.5,3.25-.32.75-.31,1.7-.92,2.25-1.63,1.45-2.61,3.28-3.45,5.23-.67,1.55-1.51,3.05-2.02,4.65-.95,3.01-1.38,6.12-1.1,9.29-2.66,0-5.32,0-7.98,0Z"/>
          <path class="cls-7" d="m231.49,261.49c-.28-3.17.14-6.28,1.1-9.29.51-1.6,1.35-3.1,2.02-4.65.84-1.95,1.82-3.79,3.45-5.23.61-.54.6-1.5.92-2.25,2.36.98,4.45,2.49,6.87,3.37.6.22,1.53-.29,1.75.51.19.67-.61,1.1-.99,1.63-1.28,1.75-2.55,3.51-3.82,5.27-.12.17-.3.36-.29.53.1,1.75-.74,3.32-1.2,4.9-.5,1.74-.93,3.4-.83,5.2-2.99,0-5.99,0-8.98,0Z"/>
          <path class="cls-7" d="m238.47,109.63c-.09-.08-.17-.16-.26-.24.09.08.17.16.26.24Z"/>
          <path class="cls-5" d="m83.83,263.49c-9.97,0-19.95,0-29.92,0-.01-2.2.27-4.45-.1-6.59-1.02-5.85-2.34-11.66-5.33-16.9-1.39-2.43-2.39-5.12-4.58-7.02-.7-.61-1.01-1.4-1.02-2.32-.07-1.09.51-1.87,1.22-2.61,2.25-2.32,3.72-5.16,5.05-8.05,1.84-3.99,2.97-8.23,4.17-12.45.24-.85.75-1.79.17-2.63-.55-.79-.53-1.61-.57-2.48-.22-4.62.56-9.27-.73-13.85-1.46-5.2-2.63-10.5-5.54-15.18-1.25-2-2.31-4.12-4.12-5.72-.58-.51-.63-1.23-.59-1.95-.05-.92.31-1.63.92-2.34.91-1.07,1.98-2.01,2.65-3.28,2-3.78,4.07-7.49,5.3-11.66,1.3-4.4,2.22-8.79,2.07-13.39-.1-2.93.12-5.86-.12-8.81-.14-1.72-.85-3.29-.83-4.99.01-.78.11-1.49-1-1.52-.4-.01-.64-.43-.75-.76-.44-1.36-1.03-2.72-1.17-4.12-.12-1.18-.62-2.03-1.33-2.83-.39-.44-.74-.88-1.02-1.39-1.54-2.81-2.71-5.87-5.3-7.99-.44-.36-.42-.97-.43-1.51-.07-.87.24-1.54.8-2.24.67-.84,1.57-1.48,2.08-2.46,1.04-2.03,1.99-4.11,3.18-6.04,1.35-2.19,1.86-4.67,2.69-7.03,1.18-3.34,2.33-6.71,2.26-10.36-.07-3.82-.03-7.65,0-11.47,0-.92-.14-1.79-.42-2.68-.89-2.8-1.81-5.59-2.53-8.43-1.18-4.65-3.67-8.55-6.54-12.28-.71-.92-1.8-1.68-1.5-3.09.03-.37-.07-.86.12-1.09,1.06-1.23,1.61-2.67,2.24-4.15,1.52-3.6,3.85-6.76,4.97-10.66,1.33-4.62,2.78-9.12,2.67-13.99-.01-.65-.19-1.33.21-1.94,1.21-1.44,2.87-1.08,4.43-1.08,8.34,0,16.69.02,25.03.03.08.23.24.45.24.68.13,3.56-.13,7.08.91,10.65.76,2.6,1.66,5.2,2.41,7.8.83,2.88,2.82,5.43,4.29,8.13,1.1,2.02,3.54,3.19,3.65,5.83-.15.85-.56,1.52-1.2,2.11-.85.78-1.56,1.7-2.19,2.68-1.45,2.26-2.47,4.76-3.82,7.07-1.19,2.03-1.49,4.34-2.25,6.5-.68,1.91-.98,3.96-1.62,5.9-.21.63-.71,1.37-.13,1.99,1.05,1.13.93,2.47.98,3.84.14,4-.43,8.01.71,11.98,1.02,3.54,1.66,7.2,3.25,10.56.62,1.3,1.45,2.5,2.13,3.77,1.14,2.16,2.21,4.34,4.15,5.95.6.5.93,1.24,1.2,1.99-.75.61-.18,1.71-.89,2.37-2.14,1.96-3.75,4.33-4.91,6.97-.88,2-2.35,3.69-2.78,5.92-.5,2.61-1.91,4.95-2.31,7.61-.18,1.21-.64,2.37-.56,3.62.37,5.91-.74,11.88.73,17.77.23.92.37,1.73,1.07,2.36,1.3,1.18,1.76,2.79,2.04,4.4.14.81.31,1.55.65,2.28.99,2.08,2.49,3.88,3.31,6.04.27.72.73,1.13,1.31,1.57,1.41,1.08,2.92,2.13,2.92,4.2.16,1.28-.43,2.18-1.37,2.99-1.29,1.13-2.05,2.62-2.79,4.18-.62,1.3-1.25,2.66-2.09,3.84-.67.93-1.21,1.9-1.49,2.97-.59,2.24-1.23,4.46-1.98,6.66-.91,2.63-1.47,5.31-1.35,8.14.14,3.44.03,6.89.04,10.34,0,.41,0,.84.09,1.23,1.52,6.36,3.06,12.7,6.44,18.41.65,1.11,1.33,2.18,2.11,3.21.92,1.21,2.12,2.22,2.64,3.71-.56.62-.06,1.57-.71,2.19-.89.84-1.89,1.64-1.62,3.1.02.13-.11.3-.19.45-.91,1.62-1.73,3.3-2.76,4.84-.78,1.17-1.61,2.39-1.88,3.67-.58,2.71-1.88,5.16-2.4,7.91-.38,1.99-.75,3.93-.71,5.95.03,1.66,0,3.32,0,4.97Z"/>
          <path class="cls-3" d="m83.83,263.49c0-1.66.02-3.32,0-4.97-.03-2.02.34-3.96.71-5.95.52-2.74,1.82-5.2,2.4-7.91.28-1.28,1.11-2.5,1.88-3.67,1.03-1.54,1.85-3.22,2.76-4.84.08-.14.22-.31.19-.45-.27-1.46.73-2.26,1.62-3.1.65-.62.15-1.57.71-2.19.6-.23,1.04-.64,1.47-1.11,1.08-1.19,2.09-2.43,3.52-3.26.89-.52,1.65-1.25,1.76-2.39.85-.02,1.67-.25,2.3-.81,1.59-1.39,3.32-2.59,5.09-3.73,1.09-.58,2.18-1.16,3.26-1.77,1.5-.86,3.09-1.63,4.88-1.69.91-.03.88-.31.42-.92-1.03-1.35-2.01-2.73-3.05-4.06-1.87-2.4-2.44-5.32-3.36-8.12-1.02-3.13-.68-6.19-.12-9.31.37-2.07.97-4.13,1.82-5.96,1.05-2.24,2.84-4.14,4.37-6.14.51-.67.86-.94-.35-1.23-1.88-.45-3.74-1.04-5.33-2.27-.8-.63-1.69-1.19-2.72-1.42-.98-.98-2.42-1.27-3.4-2.22-1.13-1.11-2.29-2.12-3.88-2.52-.17-.75-.78-1.16-1.28-1.63-.91-.84-2-1.48-2.74-2.51-.79-1.09-1.69-2.03-2.92-2.62,0-2.07-1.51-3.13-2.92-4.2-.58-.44-1.03-.85-1.31-1.57-.82-2.16-2.33-3.96-3.31-6.04-.35-.73-.51-1.48-.65-2.28-.28-1.61-.75-3.22-2.04-4.4-.7-.64-.84-1.45-1.07-2.36-1.47-5.89-.36-11.86-.73-17.77-.08-1.25.38-2.41.56-3.62.4-2.66,1.8-5,2.31-7.61.43-2.23,1.9-3.92,2.78-5.92,1.16-2.64,2.77-5.01,4.91-6.97.72-.66.14-1.75.89-2.37.61-.11.96-.61,1.41-.96.96-.74,1.45-1.91,2.52-2.56,1.25-.76,2.32-1.73,2.89-3.13.68.04,1.33-.05,1.84-.56,1.49-1.51,3.34-2.54,5.09-3.7.09-.07.18-.15.26-.22h.02c1.22-.44,2.29-1.16,3.34-1.87,1.19-.81,2.19-1.92,3.85-1.67.52.08.51-.36.28-.66-.79-1.06-1.2-2.33-2.13-3.35-1.1-1.21-2.26-2.48-2.82-4.04-.65-1.82-1.03-3.74-1.57-5.59-.76-2.57-.62-5.16-.25-7.75.33-2.33,1.79-4.38,1.83-6.8,0-.11.1-.23.18-.32,1.98-1.98,3.1-4.58,4.91-6.68.13-.15.33-.32.19-.54-.12-.2-.39-.2-.56-.12-.73.35-1.34,0-2.01-.24-2.25-.81-4.07-2.41-6.27-3.29-2.4-1.61-5.08-2.63-7.7-3.79.01-.54-.44-.77-.75-1.08-1.09-1.07-2.4-1.91-3.32-3.15-.67-.91-1.45-1.67-2.4-2.27-.11-2.63-2.56-3.81-3.65-5.83-1.47-2.7-3.46-5.25-4.29-8.13-.75-2.6-1.65-5.2-2.41-7.8-1.04-3.56-.78-7.09-.91-10.65,0-.23-.16-.45-.24-.68,2.57-.01,5.14-.02,7.7-.04.39,0,.73.07,1.05.29.4.8.52,1.64.49,2.53-.03.95-.19,1.97.06,2.86.79,2.81,1.9,5.54,1.98,8.51,0,.16.09.32.18.46,1.8,2.78,2.78,5.99,4.77,8.71,2.32,3.17,4.96,6,7.75,8.74.66.65,1.44,1.13,2.28,1.49,2.5,1.07,4.93,2.28,7.33,3.56.51.27,1.04.53,1.52.83,1.66,1.04,3.61.82,5.37,1.41,2.99,1,6.05,1.65,9.25,1.55,1.44-.04,2.88-.05,4.34.14,2.56.33,4.76,1.96,7.4,1.92.18,0,.41.14.55.28.86.86,1.89,1.47,2.91,2.12,1.15.73,2.58,1.35,3.26,2.42,1.88,2.96,4.73,5.35,5.32,9.11.4,2.53,1.46,4.86,1.49,7.57.03,2.48-.32,4.77-.99,7.05-.66,2.24-1.09,4.53-2.79,6.45-1.79,2.03-3.11,4.42-5.58,5.83-2.04,1.17-3.64,3.16-6.24,3.26-.16,0-.31.12-.46.18-2.35.95-4.7,1.78-7.32,1.56-1.73-.14-3.48-.09-5.21.22-3.25.58-6.43,1.43-9.56,2.49-2.19.74-3.81,2.67-6.26,2.84-.29.02-.59.3-.83.52-2.55,2.23-5.45,4.05-7.73,6.62-.99,1.11-2.03,2.19-2.98,3.34-1.16,1.4-2.54,2.83-3.16,4.41-.84,2.14-2.13,4.02-2.97,6.12-.39.96-.76,1.92-.72,3,.02.48-.17.97-.31,1.45-.88,2.93-1.66,5.88-1.67,8.98-.02,3.52-.11,7.03.77,10.49.52,2.04.62,4.27,1.55,6.09,1.29,2.54,2.24,5.33,4.38,7.4.62.6,1.12,1.32,1.62,2.04,3.22,4.65,7.72,7.93,12.14,11.29.28.22.68.36,1.04.39,1.05.09,1.85.63,2.69,1.18.62.41,1.34.66,1.96,1.06,1.35.87,2.95.76,4.41,1.19,2.97.87,5.98,1.65,9.1,1.67,2.73.02,5.44-.06,8.08.98,2.54,1,5.43,1.19,7.54,3.21.03.03.08.03.11.06,1.69,1.55,3.69,2.68,5.03,4.71.76,1.15,1.29,2.89,3.11,3.15.25.04.33.35.34.62.02,2.2,1.17,4.11,1.56,6.23.42,2.3.81,4.65.27,6.9-.53,2.24-.95,4.45-.83,6.74.03.5,0,.98-.41,1.37-1,.95-1.81,2.08-2.45,3.28-1.45,2.73-4.04,4.13-6.4,5.83-1.48,1.07-2.95,2.05-4.82,2.26-.16.02-.29.16-.45.21-1.97.57-3.83,1.49-6,1.37-2.94-.16-5.87.09-8.77.71-1.24.26-2.43.51-3.18,1.67-.32.5-.83.64-1.42.59-1.32-.11-2.45.34-3.68.84-1.94.78-3.48,2.49-5.75,2.52-.23,0-.47.32-.68.5-2.9,2.46-6.01,4.66-8.64,7.45-1.81,1.92-3.48,3.88-4.37,6.41-.62,1.76-1.3,3.48-2.27,5.1-.63,1.06-1.4,2.23-1.46,3.39-.13,2.31-1.12,4.38-1.45,6.63-.3,2.01-.76,3.98-.64,6.02-.08.02-.18,0-.24.05-2.33,1.73-5.01.75-7.53.99-.41.04-.82-.02-1.23-.03Zm32.93-196.39c-.18,1.48.16,3.02.89,4.59.62,1.34,1.36,2.56,2.21,3.73.78,1.08.97,2.79,2.81,2.84.12,0,.23.23.36.33,1.94,1.62,4.13,2.9,6.59,3.28,3.29.51,6.45-.04,9.29-2.06,1.03-.74,1.9-1.9,3.39-1.9.37,0,.4-.36.42-.66.03-.38.09-.76.33-1.05,1.3-1.55,2.34-3.2,3.03-5.17,1.27-3.66.54-7.04-.92-10.37-.68-1.54-2.52-2.43-2.54-4.39,0-.23-.3-.25-.51-.26-1.02-.04-1.73-.71-2.48-1.26-1.59-1.18-3.33-2.09-5.25-2.49-3.81-.8-7.29.07-10.44,2.39-.79.58-1.42,1.52-2.61,1.48-.24,0-.56.36-.57.74-.02.63-.41,1.05-.77,1.51-1.91,2.52-3.49,5.16-3.24,8.72Zm1.99,130.57c.16,1.17-.25,2.38.25,3.55.84,1.99,2.07,3.73,3.26,5.52.63.95.96,1.75,2.25,2.31,1.79.78,3.25,2.29,5.21,2.98.84.29,1.42,1.02,2.03-.21.16-.31.62-.19.93-.16,3.19.31,5.94-.71,8.53-2.54.92-.65,1.75-1.7,3.13-1.51.31.04.33-.3.35-.55.03-.32.04-.61.19-.94.91-1.91,2.65-3.33,3.17-5.51.18-.74,1.09-1.34-.16-1.94-.15-.07-.18-.44-.21-.68-.2-1.67.38-3.36-.9-5-.69-.88-1.07-2.19-1.74-3.23-.54-.84-1.56-1.43-1.41-2.66.03-.23-.18-.37-.41-.37-1.1,0-1.81-.77-2.6-1.35-1.7-1.25-3.56-2.44-5.59-2.55-1.91-.11-4.17-1.13-5.86.85-1.63-.12-2.51,1.24-3.72,1.93-1.39.79-2.58,1.7-3.47,3.17-1.69,2.77-3.64,5.36-3.23,8.88Z"/>
          <path class="cls-6" d="m172.39,164.04c.22.96.77,1.75,1.4,2.46,2.77,3.1,4.61,6.8,6.11,10.56,1.24,3.11,2.11,6.42,2.99,9.69,1.14,4.19.45,8.41.71,12.61.24,3.86-.76,7.49-1.78,11.14-.85,3.03-1.57,6.08-3.08,8.87-.58,1.07-1.11,2.09-1.14,3.45-.02,1.09-.96,2.15-1.84,3.01-.98.96-2.01,1.88-2.22,3.35-.51.27-.92.63-1.32,1.07-1.29,1.44-2.49,2.96-4.02,4.18-.69.55-1.48,1.11-1.51,2.16-.91-.11-1.65.12-2.34.82-1.42,1.43-2.92,2.8-5.01,3.24-.45.1-.45.53-.43.92-1.4.26-2.57.95-3.79,1.67-1.09.65-2.33,1.25-3.69,1.33-.39.02-.96-.24-1.1.23-.08.28.3.72.53,1.05,1.43,1.96,2.88,3.91,4.32,5.87.25.34.47.7.45,1.13-.04.95.44,1.74.69,2.61.55,1.94,1.66,3.76,1.32,5.9-.06.36-.01.75-.01,1.12-2.99,0-5.99,0-8.98,0,.12-2.63-.69-4.92-2.33-6.99-.78-.99-1.48-2.11-1.66-3.42-.05-.36-.24-.53-.57-.5-.97.08-1.65-.52-2.31-1.06-4.01-3.21-8.4-3.92-13.12-1.9-1.96.84-3.5,2.47-5.52,3.26-.16.06-.31.28-.38.46-.5,1.29-1.31,2.39-2.17,3.45-.46.57-.91,1.28-.79,1.9.32,1.63-.31,3.2-.07,4.8-2.99,0-5.99,0-8.98,0-.08-1.67.19-3.26.7-4.87.51-1.6,1.2-3.2,1.26-4.91.05-1.31.35-2.49,1.19-3.45,1.56-1.8,2.93-3.73,4.89-5.21,2.07-1.56,3.99-3.11,6.62-3.81,3.91-1.05,7.8-1.78,11.85-1.65,1.12.04,2.23-.17,3.29-.51,1.88-.61,3.83-.94,5.75-1.37,1.44-.33,2.74-.89,4.09-1.36,1.36-.47,2.25-2.06,3.99-1.64.15.04.39-.15.53-.29,1.76-1.71,3.83-2.99,5.86-4.33,1.78-1.18,2.93-3.01,4.51-4.42,1.01-.91,2.2-2,2.5-3.56.04-.23.4-.4.57-.62.82-1.08,2.14-2.01,2.15-3.39.02-1.85.92-3.33,1.4-4.99.21-.71.62-1.31.73-2.09.25-1.87.72-3.75,1.33-5.5.47-1.34.62-2.59.63-3.93.01-2.45,0-4.9,0-7.36,0-.37-.03-.75-.07-1.12-.36-3.16-1.53-6.13-2.15-9.24-.57-2.91-2.17-5.47-3.71-7.99-.77-1.27-1.41-2.68-2.53-3.67-2.05-1.81-4.1-3.62-6.02-5.58-.32-.32-.66-.64-1.04-.88-2.55-1.65-4.97-3.5-7.81-4.73-1.57-.68-3.09-1.75-4.71-2.13-2.32-.54-4.62-1.18-6.96-1.68-1.32-.28-2.6-.41-3.93-.45-2.88-.07-5.75.28-8.58-.9-2.25-.93-4.73-1.24-6.76-2.8-1.7-1.3-3.69-2.28-5.08-3.93-1.45-1.74-2.68-3.66-3.98-5.53-.28-.4-.56-.85-.53-1.37.04-.74-.28-1.33-.6-1.98-.86-1.75-1.45-3.62-1.4-5.61.11-4.54,1.05-8.82,3.42-12.8,1.62-2.72,3.72-4.97,6.1-6.92,1.83-1.51,3.79-2.97,6.32-3.44,1.93-.36,3.79-1.08,5.75-1.43.74-.13,1.67.18,2.23-.52.64-.8,1.44-.74,2.26-.55.42.1.79.15,1.21-.01,2.45-.99,5.1-1.15,7.63-1.85,2.12-.58,4.18-1.18,6.07-2.26.98-.56,1.86-1.17,3.05-1.01.16.02.4-.14.53-.29,1.59-1.72,3.51-3.02,5.5-4.21,1.24-.74,1.68-2.14,2.74-3,.9-.73,1.79-1.44,2.47-2.42,1.09-1.56,2.35-3,3.42-4.56.44-.65,1.54-1.13,1.32-1.85-.39-1.25.46-1.78.96-2.55.27-.42.67-.8.8-1.25.97-3.53,1.83-7.1,2.84-10.62.37-1.27-.2-2.48.01-3.68.42-2.4.27-4.82.14-7.2-.08-1.55-.67-3.12-1.24-4.6-.34-.9-.79-1.74-.68-2.72.12-1.1-.32-1.9-1.11-2.63-1.24-1.14-2.07-2.64-2.74-4.1-1.33-2.89-3.15-5.47-5.13-7.83-1.82-2.17-3.9-4.29-6.41-5.79-2.08-1.25-3.65-3.4-6.32-3.64-.25-.02-.5-.28-.72-.46-1.31-1.02-2.82-1.92-4.34-2.24-1.57-.33-3.11-.85-4.69-1.07-1.05-.14-1.93-.69-2.97-.85-2.49-.39-4.97-.14-7.45-.2-.63-.02-1.24-.1-1.82-.32-2.75-1-5.55-1.81-8.39-2.49-.68-.16-1.35-.38-1.87-.92-1.43-1.48-3.22-2.53-4.39-4.33-1.35-2.08-3.37-3.75-3.63-6.45-.03-.28-.18-.55-.28-.82-.92-2.45-1.46-4.98-1.56-7.59,2.66,0,5.32,0,7.98,0-.2,3.13,1.17,5.57,3.35,7.66.42.4,1.01.76,1.17,1.26.48,1.52,1.68,2.17,2.92,2.84,1.64.89,3.3,1.84,5.15,2.11,1.33.19,2.73.14,4.1-.06,1.37-.2,2.63-.73,3.9-1.23,1.28-.5,2.31-1.8,3.5-2.03,1.72-.33,1.74-1.62,2.42-2.6,1.87-2.71,3.67-5.44,3.41-8.96,2.99,0,5.99,0,8.98,0,.29,2.41-.54,4.71-1.25,6.88-.52,1.58-.48,3.41-1.82,4.85-1.44,1.53-2.5,3.43-3.88,5.05-.21.25-.57.45-.47.82.14.49.62.26.96.33.4.08.8.19,1.2.27,2.45.51,4.3,2.22,6.51,3.22,1.64.72,3.16,1.63,4.45,2.86.89.84,1.87,1.5,3.03,1.88.14.21.24.45.41.62,2.02,1.9,4.09,3.75,5.8,5.95.24.31.58.47,1,.38-.05,1.15.61,1.98,1.36,2.69,1.53,1.46,2.6,3.23,3.52,5.09,1.07,2.18,2.61,4.18,2.97,6.66.39,2.64,1.83,4.9,2.59,7.42,1.24,4.14,1.55,8.26,1.65,12.53.11,4.98-1.39,9.49-2.79,14.12-.79,2.61-1.83,5.04-3.17,7.37-1.22,2.12-2,4.53-4.06,6.11-.74.57-1.17,1.39-1.07,2.4-.89-.14-1.27.59-1.66,1.12-1.17,1.58-2.57,2.92-4.02,4.22-.52.46-1.13.87-1.34,1.6-.74.39-1.64.23-2.3.99-1.34,1.56-2.89,2.9-5.01,3.33-.39.08-.32.42-.33.7-.54.31-1.24.21-1.74.63-2.04,1.72-4.62,2.02-7.05,2.81.77,1.87,2.25,3.23,3.78,4.57,1.14,1,2.41,1.98,2.69,3.58.13.78.3,1.51.57,2.25.8,2.17,1.28,4.4,1.5,6.73.36,3.88-1.67,7.24-2.11,10.94-.01.11-.13.21-.2.31-1.63,2.22-2.96,4.67-5.03,6.55-.17.16-.43.33-.28.62.11.22.36.17.56.17.93-.01,1.78.35,2.66.58,2.22.57,3.88,2.18,5.87,3.16,1.2.36,2.2,1.05,3.18,1.81,1.33,1.03,2.36,2.57,4.25,2.71.11.48.48.77.8,1.09,1.34,1.34,2.91,2.46,4.03,4.02.48.66,1.17.89,1.95.9Zm-40.38-47.18c-2.12-.23-4.12.73-5.98,1.91-2.64,1.67-4.64,3.89-6.38,6.61-2.37,3.68-2.47,9.84.17,13.23.84,1.08,1.82,2.17,2.04,3.65.04.28.24.55.6.54.92-.02,1.53.6,2.2,1.06,1.19.8,2.24,1.72,3.69,2.19,4.3,1.42,8.22.83,11.94-1.64.98-.65,1.78-1.64,3.13-1.65.37,0,.6-.38.45-.73-.24-.56.1-.83.41-1.18,3.27-3.68,4.3-8.03,2.74-12.58-1.05-3.06-2-6.56-5.64-7.95-.15-.06-.27-.19-.39-.3-2.49-2.25-5.45-3.2-8.97-3.16Z"/>
          <path class="cls-7" d="m107.78,2.19c.1,2.62.64,5.14,1.56,7.59.1.27.26.54.28.82.26,2.7,2.28,4.37,3.63,6.45,1.17,1.8,2.97,2.85,4.39,4.33.52.54,1.19.76,1.87.92,2.84.67,5.64,1.49,8.39,2.49.59.21,1.19.3,1.82.32,2.48.07,4.97-.18,7.45.2,1.04.16,1.92.71,2.97.85,1.58.22,3.12.74,4.69,1.07,1.52.32,3.03,1.22,4.34,2.24.23.18.47.44.72.46,2.67.24,4.24,2.39,6.32,3.64,2.51,1.5,4.59,3.62,6.41,5.79,1.98,2.36,3.81,4.94,5.13,7.83.67,1.47,1.5,2.96,2.74,4.1.79.73,1.22,1.53,1.11,2.63-.1.98.34,1.82.68,2.72.56,1.48,1.16,3.04,1.24,4.6.12,2.39.28,4.8-.14,7.2-.21,1.2.35,2.4-.01,3.68-1.01,3.52-1.87,7.09-2.84,10.62-.12.46-.53.83-.8,1.25-.5.77-1.35,1.3-.96,2.55.22.72-.88,1.2-1.32,1.85-1.07,1.57-2.33,3.01-3.42,4.56-.68.98-1.57,1.69-2.47,2.42-1.06.86-1.51,2.26-2.74,3-1.99,1.19-3.91,2.49-5.5,4.21-.13.14-.36.31-.53.29-1.19-.16-2.08.45-3.05,1.01-1.89,1.08-3.95,1.67-6.07,2.26-2.53.7-5.19.86-7.63,1.85-.41.17-.78.11-1.21.01-.82-.19-1.61-.24-2.26.55-.56.7-1.49.38-2.23.52-1.96.35-3.82,1.07-5.75,1.43-2.53.48-4.48,1.94-6.32,3.44-2.37,1.95-4.47,4.2-6.1,6.92-2.38,3.98-3.31,8.26-3.42,12.8-.05,1.99.54,3.85,1.4,5.61.32.65.64,1.23.6,1.98-.03.52.26.97.53,1.37,1.3,1.86,2.53,3.79,3.98,5.53,1.38,1.66,3.38,2.63,5.08,3.93,2.03,1.56,4.51,1.86,6.76,2.8,2.83,1.17,5.7.83,8.58.9,1.33.03,2.61.17,3.93.45,2.33.5,4.64,1.14,6.96,1.68,1.62.38,3.13,1.45,4.71,2.13,2.84,1.23,5.25,3.08,7.81,4.73.38.24.72.56,1.04.88,1.92,1.95,3.96,3.77,6.02,5.58,1.12.99,1.76,2.4,2.53,3.67,1.54,2.52,3.13,5.08,3.71,7.99.61,3.11,1.78,6.08,2.15,9.24.04.37.07.74.07,1.12,0,2.45.01,4.9,0,7.36,0,1.34-.16,2.59-.63,3.93-.61,1.75-1.08,3.63-1.33,5.5-.11.78-.52,1.39-.73,2.09-.48,1.65-1.39,3.14-1.4,4.99-.01,1.38-1.34,2.31-2.15,3.39-.17.23-.52.39-.57.62-.3,1.57-1.49,2.66-2.5,3.56-1.58,1.41-2.72,3.24-4.51,4.42-2.03,1.34-4.1,2.63-5.86,4.33-.14.14-.39.32-.53.29-1.74-.42-2.64,1.17-3.99,1.64-1.35.47-2.65,1.04-4.09,1.36-1.91.43-3.87.76-5.75,1.37-1.06.34-2.17.55-3.29.51-4.05-.13-7.94.6-11.85,1.65-2.63.71-4.55,2.25-6.62,3.81-1.96,1.48-3.34,3.41-4.89,5.21-.83.96-1.14,2.15-1.19,3.45-.06,1.71-.75,3.31-1.26,4.91-.51,1.61-.78,3.2-.7,4.87-2.99,0-5.99,0-8.98,0,.1-2.47.01-4.89.61-7.38.6-2.51,1.58-4.75,2.82-6.93.33-.58.8-1.07.16-1.76-.23-.25-.13-.63.18-.88,1.44-1.13,2.02-2.88,3.12-4.25,1.13-1.41,2.54-2.58,3.6-4.07.18-.25.52-.45.82-.53,1.04-.27,1.94-.87,2.65-1.57,1.02-1.01,2.19-1.59,3.5-2.03,2-.67,3.73-1.94,5.78-2.51,2.74-.77,5.5-1.11,8.34-1,1.9.08,3.88.25,5.71-.13,4.73-.96,9.14-2.78,12.99-5.78.36-.28.75-.53,1.16-.71,2.56-1.13,3.92-3.66,6.13-5.2.17-.12.23-.43.32-.65.43-1.08.92-2.08,1.84-2.89.89-.78,1.44-1.84,1.36-3.09-.08-1.17.22-2.27.79-3.22,1.05-1.76,1.19-3.77,1.68-5.66.68-2.64.17-5.37.29-8.06.12-2.74-.63-5.31-1.56-7.84-.75-2.06-1.97-3.91-2.66-6.01-.27-.81-.83-1.51-1.73-1.86-.47-.18-.87-.54-1-1.05-.19-.73-.63-1.26-1.18-1.72-1.87-1.55-3.53-3.32-5.57-4.72-1.96-1.34-3.87-2.68-6.1-3.53-3.13-1.2-6.29-2.39-9.65-2.67-3.98-.33-7.99.35-11.97-.94-2.98-.96-5.59-2.61-8.46-3.72-1.13-.44-1.65-1.82-2.8-2.22-2.71-.93-4.25-3.25-5.75-5.32-1.5-2.07-3.12-4.12-4.26-6.47-.92-1.89-1.9-3.7-2.47-5.78-.94-3.45-.61-6.92-.68-10.39-.02-.9-.07-1.81.14-2.72.68-3.01,1.84-5.84,3.22-8.58.69-1.38,1.05-2.97,2.41-3.97.69-.51,1.28-1.12,1.31-2.14.01-.49.31-1.08.78-1.38,1.07-.69,1.86-1.64,2.6-2.65.66-.91,1.45-1.53,2.61-1.71.46-.08.98-.36,1.28-.71,1.17-1.37,2.66-2.18,4.31-2.8,1.82-.68,3.47-1.77,5.34-2.34,3.33-1.02,6.75-1.18,10.2-1.03,1.76.07,3.44-.29,5.12-.82,1.26-.4,2.12-1.38,3.26-1.92,1.75-.84,3.5-1.72,5.33-2.34,1.54-.52,2.27-2.06,3.77-2.56.99-.33,1.7-1.07,2.29-1.87.85-1.15,1.88-2.08,3.03-2.88.36-.25.7-.52.76-.93.19-1.28.93-2.19,1.84-3.01.58-.52.9-1.22,1.12-1.92.42-1.34,1.26-2.47,1.78-3.76,1.15-2.88,2.33-5.75,2.35-8.92.02-3.76.19-7.53-1.22-11.15-1.13-2.91-1.86-6.03-3.92-8.44-1.08-1.27-1.71-2.82-2.87-4-1.88-1.92-3.75-3.79-6-5.33-5.43-3.7-11.23-6.08-17.91-6-2.15.03-4.33.21-6.47-.12-2.84-.44-5.48-1.54-8-2.88-2.07-1.11-4.3-1.85-6.44-2.77-1.6-.69-2.48-2.03-3.6-3.16-2.5-2.52-4.51-5.41-6.08-8.6-.33-.67-.49-1.41-.81-2.08-1.88-3.88-2.86-7.93-2.51-12.26,2.99,0,5.99,0,8.98,0Z"/>
          <path class="cls-8" d="m98.8,2.18c-.34,4.33.64,8.38,2.51,12.26.32.67.49,1.42.81,2.08,1.57,3.19,3.58,6.08,6.08,8.6,1.12,1.13,2,2.47,3.6,3.16,2.15.92,4.37,1.67,6.44,2.77,2.52,1.34,5.16,2.44,8,2.88,2.14.33,4.31.14,6.47.12,6.68-.08,12.48,2.3,17.91,6,2.25,1.53,4.13,3.41,6,5.33,1.16,1.18,1.79,2.73,2.87,4,2.06,2.42,2.79,5.54,3.92,8.44,1.41,3.62,1.24,7.39,1.22,11.15-.01,3.17-1.19,6.04-2.35,8.92-.52,1.29-1.36,2.42-1.78,3.76-.22.7-.54,1.4-1.12,1.92-.91.82-1.65,1.73-1.84,3.01-.06.41-.4.68-.76.93-1.15.81-2.19,1.73-3.03,2.88-.59.8-1.3,1.54-2.29,1.87-1.49.5-2.23,2.05-3.77,2.56-1.83.61-3.58,1.5-5.33,2.34-1.13.54-2,1.53-3.26,1.92-1.67.53-3.36.89-5.12.82-3.45-.15-6.87,0-10.2,1.03-1.87.57-3.52,1.66-5.34,2.34-1.65.62-3.14,1.43-4.31,2.8-.3.35-.82.64-1.28.71-1.15.19-1.94.8-2.61,1.71-.73,1-1.52,1.96-2.6,2.65-.46.3-.77.89-.78,1.38-.02,1.02-.62,1.64-1.31,2.14-1.36,1.01-1.72,2.59-2.41,3.97-1.38,2.74-2.53,5.57-3.22,8.58-.21.92-.16,1.82-.14,2.72.07,3.47-.26,6.94.68,10.39.57,2.07,1.55,3.89,2.47,5.78,1.14,2.35,2.77,4.41,4.26,6.47,1.5,2.07,3.03,4.39,5.75,5.32,1.16.4,1.68,1.78,2.8,2.22,2.87,1.12,5.48,2.76,8.46,3.72,3.98,1.29,7.98.62,11.97.94,3.36.27,6.52,1.47,9.65,2.67,2.22.85,4.14,2.19,6.1,3.53,2.04,1.4,3.7,3.17,5.57,4.72.55.45.99.99,1.18,1.72.13.51.53.86,1,1.05.89.35,1.46,1.05,1.73,1.86.69,2.1,1.91,3.95,2.66,6.01.93,2.53,1.68,5.1,1.56,7.84-.12,2.69.39,5.43-.29,8.06-.49,1.9-.63,3.9-1.68,5.66-.56.95-.86,2.05-.79,3.22.08,1.25-.47,2.31-1.36,3.09-.92.81-1.41,1.81-1.84,2.89-.09.23-.15.53-.32.65-2.2,1.55-3.57,4.07-6.13,5.2-.41.18-.81.43-1.16.71-3.85,3-8.27,4.82-12.99,5.78-1.84.38-3.81.2-5.71.13-2.84-.11-5.6.23-8.34,1-2.05.57-3.79,1.84-5.78,2.51-1.31.44-2.48,1.02-3.5,2.03-.71.7-1.61,1.3-2.65,1.57-.3.08-.64.28-.82.53-1.06,1.48-2.47,2.66-3.6,4.07-1.1,1.37-1.68,3.12-3.12,4.25-.31.24-.42.63-.18.88.64.69.17,1.18-.16,1.76-1.24,2.18-2.22,4.41-2.82,6.93-.6,2.49-.51,4.92-.61,7.38-2.99,0-5.98,0-8.97-.01-.12-2.05.35-4.02.64-6.02.33-2.25,1.33-4.31,1.45-6.63.06-1.16.83-2.33,1.46-3.39.97-1.62,1.65-3.34,2.27-5.1.89-2.53,2.56-4.49,4.37-6.41,2.63-2.79,5.74-4.99,8.64-7.45.22-.19.45-.5.68-.5,2.27-.03,3.81-1.74,5.75-2.52,1.23-.49,2.37-.94,3.68-.84.59.05,1.1-.1,1.42-.59.75-1.16,1.94-1.41,3.18-1.67,2.9-.61,5.82-.87,8.77-.71,2.16.12,4.02-.81,6-1.37.16-.05.29-.19.45-.21,1.86-.21,3.34-1.2,4.82-2.26,2.36-1.7,4.94-3.1,6.4-5.83.64-1.2,1.45-2.33,2.45-3.28.42-.4.44-.87.41-1.37-.12-2.3.29-4.5.83-6.74.53-2.25.15-4.6-.27-6.9-.39-2.12-1.54-4.03-1.56-6.23,0-.26-.09-.58-.34-.62-1.83-.26-2.35-2-3.11-3.15-1.34-2.03-3.34-3.16-5.03-4.71-.03-.03-.08-.03-.11-.06-2.11-2.02-5-2.2-7.54-3.21-2.64-1.04-5.35-.96-8.08-.98-3.13-.02-6.13-.8-9.1-1.67-1.46-.43-3.06-.33-4.41-1.19-.62-.4-1.34-.65-1.96-1.06-.84-.55-1.64-1.1-2.69-1.18-.36-.03-.75-.18-1.04-.39-4.42-3.36-8.92-6.64-12.14-11.29-.49-.71-1-1.44-1.62-2.04-2.14-2.07-3.09-4.86-4.38-7.4-.93-1.82-1.03-4.05-1.55-6.09-.88-3.45-.79-6.97-.77-10.49.02-3.1.79-6.04,1.67-8.98.14-.47.33-.97.31-1.45-.04-1.08.33-2.04.72-3,.85-2.1,2.13-3.98,2.97-6.12.62-1.58,2-3.01,3.16-4.41.95-1.14,1.99-2.22,2.98-3.34,2.28-2.57,5.18-4.39,7.73-6.62.25-.22.54-.5.83-.52,2.44-.17,4.07-2.1,6.26-2.84,3.13-1.06,6.3-1.92,9.56-2.49,1.73-.31,3.48-.36,5.21-.22,2.62.22,4.97-.61,7.32-1.56.15-.06.3-.18.46-.18,2.61-.1,4.2-2.09,6.24-3.26,2.47-1.42,3.8-3.8,5.58-5.83,1.7-1.93,2.13-4.22,2.79-6.45.67-2.27,1.03-4.57.99-7.05-.04-2.71-1.1-5.04-1.49-7.57-.59-3.76-3.44-6.15-5.32-9.11-.68-1.07-2.11-1.68-3.26-2.42-1.01-.65-2.05-1.25-2.91-2.12-.14-.14-.36-.28-.55-.28-2.64.04-4.84-1.59-7.4-1.92-1.46-.19-2.9-.18-4.34-.14-3.2.1-6.26-.56-9.25-1.55-1.76-.59-3.72-.37-5.37-1.41-.47-.3-1.01-.56-1.52-.83-2.4-1.28-4.83-2.49-7.33-3.56-.84-.36-1.62-.84-2.28-1.49-2.78-2.73-5.42-5.57-7.75-8.74-1.99-2.72-2.97-5.93-4.77-8.71-.09-.14-.18-.3-.18-.46-.08-2.97-1.19-5.7-1.98-8.51-.25-.89-.09-1.9-.06-2.86.03-.89-.09-1.73-.49-2.53.26-.22.56-.3.91-.29,2.85.02,5.7.03,8.56.05Z"/>
          <path class="cls-3" d="m51.12,3.22c-.4.61-.22,1.3-.21,1.94.11,4.86-1.34,9.37-2.67,13.99-1.12,3.9-3.46,7.06-4.97,10.66-.63,1.48-1.18,2.92-2.24,4.15-.2.23-.09.72-.12,1.09-.97.3-1.76.79-2.32,1.71-.62,1.02-1.47,1.85-2.46,2.57-.88.65-1.77,1.37-2.19,2.47-.73.35-1.59.33-2.2,1.04-1.31,1.52-3.14,2.37-4.79,3.43-.29.04-.55.08-.82.24-1.65.99-3.25,2.07-5.02,2.87-.85.39-1.68.35-2.54.43-.44.04-1.42.09-.75.83.82.91,1.29,2.01,2.03,2.94.95,1.19,1.82,2.45,2.71,3.69.3.41.52.86.33,1.39-.1.28-.23.56-.03.83.9,1.21.95,2.7,1.38,4.07,1.34,4.2.73,8.23-.91,12.2-.17.41-.45.95-.32,1.29.39.99-.26,1.52-.7,2.2-1.23,1.89-3.01,3.36-3.93,5.5-.35.81-.07.94.46,1.13,2.82,1.01,5.42,2.5,8.09,3.83,2.7,1.02,4.28,3.72,6.99,4.73,1.97,2.08,4.33,3.77,6.05,6.11.2.28.61.41.92.61,0,.54-.01,1.15.43,1.51,2.6,2.12,3.76,5.18,5.3,7.99.28.51.63.96,1.02,1.39.71.8,1.21,1.65,1.33,2.83.15,1.4.73,2.76,1.17,4.12.11.34.35.75.75.76,1.11.04,1.02.74,1,1.52-.02,1.7.69,3.28.83,4.99.24,2.95.02,5.88.12,8.81.15,4.6-.77,8.98-2.07,13.39-1.23,4.17-3.3,7.88-5.3,11.66-.67,1.27-1.75,2.21-2.65,3.28-.61.72-.96,1.42-.92,2.34-.96.34-1.76.86-2.37,1.72-.87,1.22-1.99,2.22-3.13,3.19-.66.56-1.36,1.13-1.45,2.1-1.27.03-2.3.58-3.15,1.51-.62.67-1.4,1.11-2.15,1.62-.75.5-1.88.53-2.25,1.57-1.33.63-2.8,1.01-3.89,2.1-.77.77-1.63,1.27-2.76,1.18-.86-.06-.87.35-.55,1,.49.98,1.17,1.81,1.95,2.56,1.27,1.23,2.14,2.87,2.67,4.39.71,2.02,1.23,4.18,1.68,6.32.46,2.17.72,4.35.23,6.52-.47,2.08-1.29,4.09-1.69,6.18-.22,1.16-.67,2.11-1.3,3.03-1.34,1.95-2.71,3.88-4.08,5.84,3.42.03,6,2.02,8.75,3.57,1.61.84,3.22,1.71,4.55,2.96.86.81,1.78,1.47,2.92,1.79.55.7.77,1.84,1.98,1.73.81-.07,1.27.3,1.75.9.94,1.18,1.72,2.54,3.23,3.14.01.92.32,1.71,1.02,2.32,2.2,1.91,3.2,4.59,4.58,7.02,3,5.25,4.31,11.05,5.33,16.9.37,2.14.09,4.39.1,6.59-3,0-5.99,0-8.99,0-.01-1.41.01-2.82-.05-4.23-.16-3.36-1.76-6.42-2.01-9.77-.03-.4-.28-.78-.41-1.17-.52-1.54-1.65-2.8-2.22-4.25-1.17-2.96-3.05-5.38-5.12-7.68-2.34-2.6-5.44-4.27-8.18-6.38-.91-.7-1.59-1.93-2.78-2-1.51-.09-2.5-.93-3.58-1.74-.26-.19-.58-.31-.87-.45-2.74-1.34-5.82-1.37-8.67-2.26-2.62-.81-5.26-1.05-7.96-.92,0-3,0-6,0-9,1.58.07,3.01-.19,4.54-.84,1.39-.6,2.69-1.29,3.83-2.19,1.01-.79,2.96-.69,2.82-2.71,0-.09.26-.18.35-.3,1.88-2.38,3.46-4.87,3.4-8.08-.03-1.85-.13-3.6-.83-5.41-.55-1.43-1.32-2.67-2.24-3.76-.83-.98-.56-3.1-2.7-2.83-.1.01-.21-.25-.35-.33-2.69-1.79-5.36-3.65-8.83-3.46,0-3,0-6,0-9,1.49-.04,2.97.05,4.47-.18,1.43-.21,2.81-.72,4.26-.8.92-.05,1.92.23,2.53-.84.09-.16.54-.17.82-.16.65.03,1.21-.18,1.78-.46,1.33-.65,2.78-1.07,3.93-2.08.29-.25.76-.45,1.14-.43.92.03,1.62-.43,2.24-.95,3.29-2.75,6.87-5.17,9.74-8.42,1.41-1.59,2.26-3.57,3.81-5.03.54-.52,1.04-1.15,1.11-1.91.1-1,.53-1.81,1.08-2.6.8-1.16,1.56-2.49,1.83-3.74.33-1.5.65-3,.98-4.51.46-2.12.98-4.26,1.14-6.44.45-6.27-.34-12.39-2.8-18.17-1.16-2.73-2.31-5.54-4.2-7.93-1.61-2.05-3.06-4.23-5.21-5.79-.7-.51-1.6-.83-2.15-1.46-1.88-2.15-4.42-3.45-6.62-5.16-1.37-1.06-3.01-2.01-4.69-2.67-.74-.29-1.25-1.13-2.07-1.03-2.27.26-4.25-.8-6.36-1.25-2.53-.54-5.05-.9-7.63-.75-.03-3-.07-6.01-.1-9.01.66,0,1.34.15,1.96-.14,1.87-.86,3.82-1.56,5.45-2.89.6-.49,1.17-1.09,2.07-.97.3.04.49-.19.45-.46-.12-.86.46-1.34.92-1.93.72-.9,1.58-1.8,1.96-2.84.7-1.95,1.27-3.93,1.17-6.12-.13-2.81-1.14-5.17-2.7-7.41-.5-.72-1.31-1.34-1.32-2.28-.02-.87-.45-.9-1.1-.89-.85,0-1.73.18-2.49-.44-2.16-1.72-4.65-2.48-7.38-2.54,0-3,0-6,0-9,3.37.49,6.53-.82,9.82-1.11.79-.07,1.53-.75,2.32-.82,2.59-.23,4.92-1.01,6.88-2.75.15-.13.36-.26.54-.27,2.42-.1,3.79-1.9,5.22-3.42,1.42-1.5,2.96-2.86,4.4-4.34,1.75-1.81,3.77-3.34,4.98-5.66.42-.8.28-1.77.73-2.34,1.07-1.38,1.75-2.98,2.74-4.4.53-.77,1.25-1.74,1.15-2.54-.26-2.18,1.01-3.94,1.3-5.96.4-2.75.88-5.46.77-8.25,3.07-.03,6.14-.12,9.21.05Z"/>
          <path class="cls-8" d="m2.17,91.95c2.58-.16,5.11.2,7.63.75,2.11.45,4.09,1.51,6.36,1.25.82-.09,1.34.74,2.07,1.03,1.69.66,3.32,1.61,4.69,2.67,2.2,1.71,4.74,3.01,6.62,5.16.55.63,1.45.95,2.15,1.46,2.15,1.56,3.6,3.75,5.21,5.79,1.89,2.39,3.04,5.2,4.2,7.93,2.46,5.78,3.25,11.9,2.8,18.17-.16,2.18-.68,4.33-1.14,6.44-.33,1.51-.66,3.01-.98,4.51-.27,1.26-1.03,2.58-1.83,3.74-.55.79-.98,1.6-1.08,2.6-.08.75-.57,1.39-1.11,1.91-1.55,1.47-2.4,3.45-3.81,5.03-2.88,3.25-6.45,5.67-9.74,8.42-.62.52-1.32.98-2.24.95-.38-.01-.85.18-1.14.43-1.15,1.01-2.59,1.44-3.93,2.08-.57.28-1.13.49-1.78.46-.28-.01-.72,0-.82.16-.61,1.07-1.61.78-2.53.84-1.45.09-2.82.59-4.26.8-1.5.22-2.98.13-4.47.18,0-2.82,0-5.65,0-8.47,1.16-.43,2.43-.31,3.59-.57,4.95-1.11,9.81-2.53,13.88-5.79.45-.36.97-.63,1.45-.97,2.49-1.75,5.21-3.3,6.1-6.55.03-.11.13-.22.22-.29,1.59-1.29,2.58-2.99,3.36-4.85.75-1.79,1.61-3.54,2.26-5.36,1.16-3.26.91-6.68,1.08-10.07.22-4.41-1.48-8.22-3.28-12-1.5-3.13-3.25-6.17-5.85-8.56-1.03-.94-1.89-2.07-3.01-2.9-1.26-.92-2.75-1.53-3.8-2.76-.19-.22-.41-.41-.73-.44-1.11-.09-2.03-.66-2.96-1.19-2.35-1.35-4.89-2.19-7.51-2.83-1.85-.46-3.72-.11-5.58-.22-.07-.15-.13-.31-.2-.46,0-.19,0-.38.01-.57.29-.48.17-.99.11-1.49,0-1.88,0-3.77-.01-5.65.01-.03.04-.07.03-.09-.02-.06-.05-.12-.07-.18,0-.17.01-.33.02-.5Z"/>
          <path class="cls-7" d="m2.28,100.9c1.86.12,3.73-.23,5.58.22,2.62.65,5.16,1.48,7.51,2.83.92.53,1.85,1.11,2.96,1.19.32.03.54.22.73.44,1.05,1.23,2.54,1.84,3.8,2.76,1.12.82,1.98,1.95,3.01,2.9,2.6,2.38,4.35,5.42,5.85,8.56,1.8,3.78,3.5,7.58,3.28,12-.17,3.39.08,6.81-1.08,10.07-.65,1.83-1.51,3.57-2.26,5.36-.78,1.86-1.77,3.56-3.36,4.85-.09.08-.19.18-.22.29-.89,3.25-3.61,4.79-6.1,6.55-.47.33-1,.61-1.45.97-4.07,3.26-8.93,4.68-13.88,5.79-1.16.26-2.43.13-3.59.57-.11-.63.2-1.45-.8-1.69-.34-.08-.24-.48-.23-.75,0-.94.03-1.88.04-2.82.02-.01.07-.03.07-.04-.01-.05-.04-.09-.06-.13.06-1.01-.12-2.03.13-3.04,1.46.03,2.86-.28,4.28-.58,1.97-.42,3.76-1.59,5.87-1.42.6.05.67-.38.63-.83-.05-.65.2-1.09.78-1.42,2.61-1.47,5.06-3.12,6.51-5.87.09-.18.26-.35.43-.44,1.09-.58,1.53-1.7,2.11-2.66.34-.57,1.16-.84,1.11-1.59-.12-1.51.87-2.69,1.26-4.03.96-3.33,1.15-6.52.09-9.82-.4-1.25-1.1-2.53-1.18-3.7-.16-2.35-1.74-3.77-2.78-5.53-1.16-1.96-3-3.36-4.76-4.68-1.93-1.45-3.51-3.81-6.49-3.33-.13.02-.29-.14-.44-.21-2.37-1.15-4.84-1.82-7.51-1.49-.18-.68-.08-1.36-.05-2.04.02-.01.07-.03.07-.04-.01-.05-.03-.09-.05-.13.01-2.17.03-4.33.04-6.49.05-.18.1-.35.15-.53Z"/>
          <path class="cls-6" d="m2.13,110.14c2.67-.33,5.13.35,7.51,1.49.15.07.31.23.44.21,2.97-.48,4.56,1.88,6.49,3.33,1.76,1.33,3.6,2.73,4.76,4.68,1.04,1.76,2.62,3.18,2.78,5.53.08,1.18.78,2.46,1.18,3.7,1.07,3.31.88,6.49-.09,9.82-.39,1.34-1.38,2.52-1.26,4.03.06.74-.77,1.02-1.11,1.59-.58.97-1.02,2.08-2.11,2.66-.17.09-.34.26-.43.44-1.45,2.75-3.9,4.41-6.51,5.87-.58.33-.83.77-.78,1.42.03.45-.03.88-.63.83-2.11-.17-3.9,1-5.87,1.42-1.42.3-2.82.61-4.28.58-.02-.19-.04-.38-.06-.57.12-.13.12-.25,0-.38-.01-2.45-.02-4.89-.03-7.34,0,0,.08-.06.08-.06l-.07-.07c.02-.19.04-.39.06-.58,0,0,.06.02.06.02l.06-.02c2.3.15,4.37-.68,6.26-1.79,2.46-1.45,4.86-3.06,6.06-5.87.05-.11.16-.19.24-.28,1.17-1.35,1.74-3.11,1.99-4.68.52-3.25.14-6.53-2.15-9.26-.75-.89-1.29-1.95-1.64-3.05-.17-.52-.39-.78-.87-.89-.88-.2-1.55-.75-2.25-1.26-2.35-1.7-4.86-2.99-7.88-2.82.02-2.91.04-5.82.06-8.73Z"/>
          <path class="cls-8" d="m3.06,222.63c2.7-.13,5.35.11,7.96.92,2.85.88,5.93.92,8.67,2.26.29.14.62.26.87.45,1.08.81,2.07,1.65,3.58,1.74,1.19.07,1.87,1.3,2.78,2,2.74,2.11,5.84,3.78,8.18,6.38,2.07,2.3,3.96,4.72,5.12,7.68.57,1.46,1.7,2.72,2.22,4.25.13.39.38.77.41,1.17.25,3.35,1.85,6.41,2.01,9.77.07,1.41.04,2.82.05,4.23-2.99,0-5.98,0-8.97,0-.1-2.06.31-4.16-.26-6.19-.39-1.39-.58-2.85-1.07-4.19-.42-1.13-1.31-2.09-1.68-3.29-.95-3.05-3.34-5.18-4.94-7.82-.14-.24-.39-.46-.64-.58-1.69-.79-2.89-2.29-4.55-3.13-.44-.22-.9-.46-1.26-.79-2.68-2.51-6.16-3.51-9.45-4.76-2.85-1.08-5.95-1.35-9.04-1.14v-8.97Z"/>
          <path class="cls-8" d="m41.92,3.17c.11,2.79-.37,5.5-.77,8.25-.3,2.03-1.56,3.78-1.3,5.96.1.8-.62,1.77-1.15,2.54-.99,1.42-1.67,3.02-2.74,4.4-.44.57-.31,1.54-.73,2.34-1.21,2.32-3.23,3.86-4.98,5.66-1.43,1.48-2.98,2.83-4.4,4.34-1.43,1.52-2.8,3.32-5.22,3.42-.19,0-.4.14-.54.27-1.97,1.74-4.29,2.52-6.88,2.75-.79.07-1.53.75-2.32.82-3.28.29-6.45,1.59-9.82,1.11,0-2.99,0-5.98,0-8.97,2.06-.14,4.11.2,6.19-.32,2.71-.69,5.23-1.79,7.76-2.92,1.39-.62,2.93-.96,4.01-2.16.62-.69,1.37-1.26,2.19-1.62,2.18-.97,3.68-2.74,4.98-4.55,1.22-1.72,2.91-3.31,2.94-5.69,0-.27.2-.54.32-.8,1.32-2.74,2.53-5.53,3.24-8.5.5-2.09.16-4.22.26-6.32,2.99,0,5.98,0,8.97,0Z"/>
          <path class="cls-7" d="m3.06,231.6c3.09-.21,6.19.06,9.04,1.14,3.29,1.24,6.76,2.25,9.45,4.76.36.33.82.56,1.26.79,1.65.84,2.86,2.33,4.55,3.13.25.12.5.34.64.58,1.6,2.64,3.99,4.77,4.94,7.82.37,1.2,1.26,2.16,1.68,3.29.49,1.33.69,2.79,1.07,4.19.56,2.03.16,4.13.26,6.19-2.99,0-5.99,0-8.98,0,0-1.28.04-2.55-.31-3.81-.58-2.13-1.67-4.13-1.7-6.4,0-.15-.06-.36-.17-.45-1.92-1.65-2.8-4.25-5.16-5.51-1.27-.68-2.24-1.87-3.47-2.57-1.44-.82-2.56-2.61-4.66-1.93-.13.04-.33-.05-.46-.14-2.41-1.64-5.14-2.06-7.98-2.09v-8.98Z"/>
          <path class="cls-7" d="m32.94,3.18c-.1,2.11.25,4.23-.26,6.32-.71,2.98-1.93,5.76-3.24,8.5-.12.26-.32.53-.32.8-.03,2.39-1.72,3.98-2.94,5.69-1.3,1.82-2.8,3.58-4.98,4.55-.81.36-1.57.93-2.19,1.62-1.07,1.2-2.62,1.53-4.01,2.16-2.53,1.13-5.05,2.23-7.76,2.92-2.07.52-4.13.18-6.19.32,0-2.99,0-5.99,0-8.98,2.27.32,4.54-.07,6.47-1.08,1.66-.87,3.55-.78,5.18-2,2.48-1.86,5.07-3.54,6.98-6.02.88-1.15,2.31-2.26,2.18-3.72-.2-2.34.84-4.32,1.43-6.37.46-1.6.61-3.11.65-4.7,2.99,0,5.99,0,8.98,0Z"/>
          <path class="cls-5" d="m3.05,183.72c3.47-.2,6.13,1.67,8.83,3.46.13.09.25.35.35.33,2.14-.27,1.87,1.86,2.7,2.83.92,1.09,1.69,2.32,2.24,3.76.7,1.81.8,3.57.83,5.41.06,3.21-1.53,5.7-3.4,8.08-.1.12-.36.21-.35.3.14,2.01-1.81,1.91-2.82,2.71-1.14.9-2.44,1.59-3.83,2.19-1.52.65-2.96.92-4.54.84-.01-9.32-.04-18.64,0-27.96,0-.65-.5-1.31,0-1.96Z"/>
          <path class="cls-5" d="m2.06,118.87c3.03-.18,5.53,1.12,7.88,2.82.71.51,1.38,1.06,2.25,1.26.48.11.7.37.87.89.35,1.1.9,2.16,1.64,3.05,2.29,2.73,2.67,6,2.15,9.26-.25,1.57-.82,3.34-1.99,4.68-.08.09-.2.17-.24.28-1.19,2.81-3.6,4.42-6.06,5.87-1.89,1.12-3.96,1.95-6.26,1.79-.06-.3-.11-.59-.17-.89,0-8.64,0-17.28,0-25.91,0-1.03-.05-2.07-.08-3.1Z"/>
          <path class="cls-5" d="m1.06,54.03c2.73.06,5.23.82,7.38,2.54.77.61,1.64.44,2.49.44.64,0,1.08.02,1.1.89.02.94.82,1.56,1.32,2.28,1.56,2.24,2.57,4.6,2.7,7.41.1,2.19-.47,4.17-1.17,6.12-.38,1.05-1.24,1.94-1.96,2.84-.47.59-1.04,1.07-.92,1.93.04.28-.15.5-.45.46-.9-.11-1.47.49-2.07.97-1.63,1.33-3.58,2.03-5.45,2.89-.63.29-1.3.15-1.96.14-.15-.8.25-1.8-.88-2.23-.27-.1-.16-.44-.16-.68,0-8.67.02-17.33.03-26Z"/>
          <path class="cls-5" d="m145.68,1.18c.26,3.52-1.54,6.25-3.41,8.96-.67.98-.7,2.27-2.42,2.6-1.19.23-2.22,1.52-3.5,2.03-1.27.5-2.53,1.03-3.9,1.23-1.37.2-2.76.25-4.1.06-1.85-.27-3.5-1.22-5.15-2.11-1.24-.67-2.45-1.33-2.92-2.84-.15-.49-.75-.86-1.17-1.26-2.18-2.09-3.56-4.53-3.35-7.66,6.22-.01,12.44-.02,18.66-.05.52,0,1.31.36,1.34-.73,0-.39.46-.25.72-.25,3.07,0,6.13.02,9.2.03Z"/>
          <path class="cls-3" d="m170.6,34.28c-.41.09-.76-.07-1-.38-1.71-2.2-3.78-4.05-5.8-5.95-.18-.17-.28-.41-.41-.62,3.58-3.33,5.81-7.64,7.07-12.13,1.26-4.51,2.7-9.16,2.15-14.03,3,0,5.99,0,8.99,0-.1,2.69.33,5.41-.28,8.06-.63,2.71-.95,5.53-2.15,8.08-.66,1.39-.53,2.94-1.33,4.32-1.49,2.59-3.04,5.16-4.36,7.86-.44.91-1.4,1.49-2.05,2.3-.63.78-.85,1.56-.84,2.49Z"/>
          <path class="cls-6" d="m23.97,3.18c-.03,1.59-.18,3.1-.65,4.7-.59,2.05-1.63,4.04-1.43,6.37.12,1.46-1.3,2.57-2.18,3.72-1.91,2.48-4.5,4.16-6.98,6.02-1.64,1.23-3.52,1.13-5.18,2-1.94,1.02-4.2,1.4-6.47,1.08,0-2.99,0-5.99.01-8.98,1.15-.04,2.34.23,3.44-.27,1.68-.76,3.49-1.26,4.87-2.61.49-.47,1.11-.85,1.86-.91.31-.03.64-.19.72-.58.31-1.51,1.31-2.64,2.17-3.83.47-.65,1.03-1.16.06-1.82-.25-.17-.25-.47-.07-.66,1.21-1.24.77-2.79.84-4.24,2.99,0,5.99,0,8.98,0Z"/>
          <path class="cls-6" d="m3.06,240.58c2.83.02,5.56.45,7.98,2.09.13.09.33.18.46.14,2.09-.68,3.21,1.11,4.66,1.93,1.23.7,2.19,1.89,3.47,2.57,2.36,1.26,3.25,3.86,5.16,5.51.11.09.17.3.17.45.03,2.28,1.13,4.27,1.7,6.4.34,1.26.31,2.53.31,3.81-2.66,0-5.33,0-7.99,0,.33-2.21-.42-3.89-2.03-5.51-1.14-1.15-2.48-2.3-3.04-3.97-.03-.1-.17-.22-.27-.24-2.4-.41-3.8-2.58-5.99-3.4-1.17-.43-2.32-.88-3.59-.8-.13-.8.25-1.81-.94-2.17-.1-.03-.1-.46-.1-.7,0-2.04.02-4.07.04-6.11Z"/>
          <path class="cls-8" d="m172.61,1.18c.55,4.86-.89,9.52-2.15,14.03-1.26,4.49-3.49,8.8-7.07,12.13-1.16-.38-2.14-1.04-3.03-1.88-1.3-1.23-2.82-2.14-4.45-2.86,1.28-2.37,3.41-4.23,4.28-6.85.58-1.73,1.76-3.14,2.27-4.9.92-3.16,1.4-6.37,1.18-9.66,2.99,0,5.98,0,8.97,0Z"/>
          <path class="cls-7" d="m163.64,1.18c.22,3.3-.26,6.5-1.18,9.66-.51,1.76-1.69,3.18-2.27,4.9-.87,2.61-3,4.47-4.28,6.85-2.2-1-4.06-2.72-6.51-3.22-.4-.08-.8-.19-1.2-.27-.34-.07-.81.16-.96-.33-.11-.37.26-.57.47-.82,1.38-1.62,2.44-3.52,3.88-5.05,1.35-1.44,1.31-3.26,1.82-4.85.71-2.17,1.53-4.46,1.25-6.88,2.99,0,5.99,0,8.98,0Z"/>
          <path class="cls-5" d="m14.98,3.18c-.08,1.45.37,3.01-.84,4.24-.19.19-.18.49.07.66.97.65.41,1.17-.06,1.82-.86,1.19-1.86,2.32-2.17,3.83-.08.39-.41.55-.72.58-.75.06-1.38.44-1.86.91-1.39,1.35-3.2,1.85-4.87,2.61-1.1.5-2.29.23-3.44.27-.02-4.72-.02-9.45-.06-14.17,0-.72.34-.79.92-.79,4.35.03,8.7.03,13.05.05Z"/>
          <path class="cls-3" d="m2.21,98.38c.06.5.18,1.01-.11,1.49-.09-.51-.13-1.01.11-1.49Z"/>
          <path class="cls-3" d="m2.28,100.9c-.05.18-.1.35-.15.53-.14-.32-.12-.65-.05-.99.07.15.13.31.2.46Z"/>
          <path class="cls-3" d="m2.14,147.89c.06.3.11.59.17.89,0,0-.06.02-.06.02,0,0-.06-.02-.06-.02-.11-.29-.22-.58-.04-.88Z"/>
          <path class="cls-3" d="m2.15,156.82c.13.12.13.25,0,.38-.12-.12-.12-.25,0-.38Z"/>
          <path class="cls-3" d="m2.09,160.8s.04.09.06.13c0,0-.04.03-.07.04-.04-.06-.04-.12.01-.17Z"/>
          <polygon class="cls-3" points="2.12 149.35 2.2 149.42 2.12 149.49 2.08 149.42 2.12 149.35"/>
          <path class="cls-3" d="m2.1,107.93s.04.09.05.13c0,0-.05.03-.07.04-.04-.06-.04-.12.02-.17Z"/>
          <path class="cls-3" d="m2.15,92.46c.03.06.06.12.07.18,0,.03-.02.06-.03.09-.03-.06-.07-.12-.08-.18,0-.02.03-.06.04-.09Z"/>
          <path class="cls-5" d="m119.76,262.49c-.24-1.6.39-3.18.07-4.8-.12-.62.32-1.33.79-1.9.86-1.06,1.67-2.16,2.17-3.45.07-.18.22-.4.38-.46,2.02-.79,3.56-2.42,5.52-3.26,4.72-2.02,9.11-1.31,13.12,1.9.67.53,1.34,1.13,2.31,1.06.34-.03.52.14.57.5.18,1.32.88,2.43,1.66,3.42,1.64,2.07,2.45,4.36,2.33,6.99h-28.91Z"/>
          <path class="cls-3" d="m166.7,236.6c.03-1.05.81-1.61,1.51-2.16,1.53-1.22,2.73-2.74,4.02-4.18.4-.44.81-.8,1.32-1.07-.13,1.35.47,2.45,1.4,3.3,2.09,1.9,2.92,4.56,4.4,6.83,2.28,3.5,2.74,7.64,4.26,11.4.44,1.09.74,2.15.75,3.32-.03.26-.06.52.12.75.04,2.23.08,4.47.12,6.7-2.99.02-5.97.04-8.96.06.49-4.65-1.83-8.86-2.13-13.4-.01-.19-.18-.37-.25-.57-.57-1.76-1.98-3.1-2.58-4.79-.86-2.42-2.54-4.21-3.98-6.2Z"/>
          <path class="cls-8" d="m166.7,236.6c1.44,1.99,3.13,3.78,3.98,6.2.6,1.69,2.01,3.03,2.58,4.79.06.2.23.37.25.57.3,4.53,2.62,8.74,2.13,13.4,0,.56.03,1.02-.81,1-2.73-.07-5.46-.05-8.19-.06.14-3.02.08-6.05-.82-8.95-.83-2.67-2.09-5.2-3.49-7.6-.92-1.58-2.26-2.91-3.41-4.35-.02-.39-.02-.83.43-.92,2.09-.44,3.59-1.81,5.01-3.24.69-.7,1.43-.93,2.34-.82Z"/>
          <path class="cls-7" d="m158.92,241.58c1.15,1.44,2.49,2.77,3.41,4.35,1.4,2.41,2.66,4.93,3.49,7.6.9,2.9.95,5.93.82,8.95-2.99,0-5.99,0-8.98,0,0-.37-.04-.75.01-1.12.33-2.14-.77-3.97-1.32-5.9-.25-.87-.74-1.66-.69-2.61.02-.43-.2-.79-.45-1.13-1.44-1.95-2.89-3.9-4.32-5.87-.24-.32-.61-.77-.53-1.05.13-.47.71-.21,1.1-.23,1.36-.08,2.61-.68,3.69-1.33,1.22-.72,2.39-1.41,3.79-1.67Z"/>
          <path class="cls-8" d="m262.37,97.92c-.58,0-1.17-.05-1.74,0-3.69.37-6.97-1.07-10.3-2.31-3.09-1.15-5.92-2.84-8.46-4.84-2.16-1.71-4.41-3.52-5.71-6.13-.07-.14-.19-.3-.32-.36-2.02-.9-2.37-2.97-3.27-4.65-1.33-2.48-1.98-5.22-3-7.81-.12-.29-.09-.65-.09-.98,0-2.91-.1-5.82.03-8.72.1-2.14.85-4.19,1.44-6.25.66-2.3,1.86-4.43,3.07-6.43,1.16-1.92,2.27-4,4.11-5.5,1.01-.83,2.01-1.74,2.72-2.88.09-.14.2-.31.34-.36,2.15-.76,3.53-2.68,5.55-3.63,2.19-1.03,4.4-2.02,6.57-3.1,1.78-.88,3.64-1.01,5.57-.92.83.04,1.66,0,2.49,0,.01,1.85.11,3.7.01,5.54-.07,1.3.19,2.43.99,3.44-2.33-.29-4.56.31-6.67,1.11-1.31.5-2.86.53-3.94,1.32-2.05,1.51-3.97,3.2-6.23,4.42-.18.09-.34.26-.44.43-1.32,2.15-2.6,4.32-4.46,6.07-.13.12-.17.38-.17.57,0,1.02-.39,1.94-.66,2.89-.47,1.67-1.14,3.33-1.29,5.03-.31,3.61,0,7.2,1.64,10.54.17.34.4.76.22,1.19-.36.86.23,1.12.85,1.32.7.22,1.09.68,1.57,1.25,1.01,1.2,1.48,2.87,2.78,3.73,2.95,1.95,5.31,4.79,9.05,5.63,2.57.58,5.05,1.53,7.75,1.41,0,2.99,0,5.98,0,8.97Z"/>
          <path class="cls-3" d="m262.37,88.95c-2.69.11-5.18-.83-7.75-1.41-3.74-.84-6.1-3.67-9.05-5.63-1.3-.86-1.77-2.53-2.78-3.73-.48-.57-.87-1.03-1.57-1.25-.62-.2-1.21-.45-.85-1.32.18-.43-.05-.85-.22-1.19-1.64-3.35-1.94-6.93-1.64-10.54.14-1.7.82-3.36,1.29-5.03.27-.95.65-1.88.66-2.89,0-.19.04-.45.17-.57,1.86-1.75,3.14-3.92,4.46-6.07.1-.17.27-.33.44-.43,2.26-1.22,4.17-2.91,6.23-4.42,1.08-.79,2.62-.82,3.94-1.32,2.11-.8,4.34-1.4,6.67-1.11,0,3,0,6,0,9-1.15.02-2.3-.1-3.43.37-2.04.84-3.85,2-5.67,3.24-.97.66-1.56,1.3-2.24,2.23-1.35,1.85-2.56,3.75-3.29,5.89-.62,1.81-.66,3.8-.04,5.6.69,2.02,1.85,3.84,3.16,5.55.68.89.61,2.5,2.37,2.29.1-.01.21.24.34.34,2.63,1.92,5.3,3.73,8.8,3.41,0,3,0,6,0,9Z"/>
          <path class="cls-5" d="m262.37,79.95c-3.5.32-6.17-1.48-8.8-3.41-.13-.1-.24-.35-.34-.34-1.75.21-1.69-1.41-2.37-2.29-1.31-1.71-2.47-3.54-3.16-5.55-.62-1.8-.58-3.79.04-5.6.73-2.14,1.94-4.04,3.29-5.89.68-.93,1.27-1.57,2.24-2.23,1.82-1.24,3.63-2.41,5.67-3.24,1.13-.46,2.28-.35,3.43-.37,0,9.64,0,19.28,0,28.92Z"/>
          <path class="cls-3" d="m164.58,105.61c.21-.73.82-1.14,1.34-1.6,1.45-1.3,2.85-2.64,4.02-4.22.39-.53.77-1.25,1.66-1.12-.05,1,.15,1.89.96,2.57,2.33,1.97,3.19,4.89,4.76,7.35,1.55,2.42,2.18,5.18,3.09,7.84,1.34,3.9,2.21,7.85,2.16,11.98-.03,2.74,0,5.48,0,8.22,0,1.82.03,3.64-.85,5.32-.19.36-.2.71.28.92.64.27.65.74.44,1.34-.49,1.41-.84,2.86-1.48,4.22-.14.3-.3.62-.32.93-.16,2.22-1.22,3.97-2.73,5.53-.48.49-.96,1.09-1.16,1.72-.55,1.75-1.54,3.18-2.89,4.38-.93.82-1.21,1.93-1.47,3.05-.79,0-1.48-.24-1.95-.89-1.13-1.56-2.69-2.68-4.03-4.02-.32-.32-.69-.61-.8-1.09.84-1.28,1.78-2.49,2.76-3.67.45-.53.92-1.16,1.06-1.81.22-1.06.8-1.87,1.29-2.77.99-1.79,2.15-3.54,1.91-5.74-.01-.12.02-.26.08-.36,1.06-1.75.96-3.85,1.71-5.68.15-.36.31-.77-.07-1.01-.77-.49-.8-1.23-.72-1.98.61-5.99-.94-11.72-2.08-17.49-.05-.24-.11-.5-.23-.71-1.67-2.79-2.59-6-4.75-8.52-.73-.85-1.45-1.7-1.99-2.69Z"/>
          <path class="cls-8" d="m184.48,254.79c-.18-.23-.14-.49-.12-.75.24.22.24.48.12.75Z"/>
          <path class="cls-6" d="m40.9,101.15c-.31-.2-.71-.33-.92-.61-1.72-2.34-4.07-4.03-6.05-6.11.07-.19.1-.42.22-.57,2.53-3.02,4.27-6.5,5.92-10.05.65-1.4.62-2.9,1.2-4.25.38-.89.73-1.75.66-2.74-.04-.6.11-1.18.46-1.65.49-.65.58-1.35.54-2.11-.26-4.43.49-8.89-.88-13.32-.59-1.93-1.48-3.97-1.15-6.15.02-.1-.08-.23-.14-.34-1.8-3.35-3.13-6.96-5.53-9.99-.41-.51-.76-1.06-1.28-1.47.42-1.1,1.31-1.82,2.19-2.47.99-.72,1.84-1.55,2.46-2.57.56-.92,1.35-1.41,2.32-1.71-.3,1.42.79,2.17,1.5,3.09,2.87,3.73,5.36,7.63,6.54,12.28.72,2.84,1.64,5.64,2.53,8.43.28.89.43,1.76.42,2.68-.02,3.82-.06,7.65,0,11.47.07,3.65-1.08,7.02-2.26,10.36-.84,2.36-1.34,4.84-2.69,7.03-1.19,1.94-2.15,4.02-3.18,6.04-.5.98-1.41,1.62-2.08,2.46-.56.71-.87,1.37-.8,2.24Z"/>
          <path class="cls-6" d="m100.87,223.65c-.11,1.15-.87,1.88-1.76,2.39-1.43.83-2.45,2.07-3.52,3.26-.42.47-.87.88-1.47,1.11-.51-1.5-1.72-2.51-2.64-3.71-.78-1.03-1.46-2.1-2.11-3.21-3.38-5.71-4.92-12.06-6.44-18.41-.09-.4-.09-.82-.09-1.23,0-3.45.11-6.9-.04-10.34-.12-2.84.44-5.51,1.35-8.14.75-2.19,1.39-4.42,1.98-6.66.28-1.08.83-2.04,1.49-2.97.85-1.18,1.47-2.54,2.09-3.84.74-1.56,1.49-3.05,2.79-4.18.93-.82,1.52-1.71,1.37-2.99,1.23.59,2.13,1.53,2.92,2.62.74,1.02,1.84,1.66,2.74,2.51.5.47,1.12.88,1.28,1.63-.1.99-1.16,1.28-1.5,2.12-.49,1.19-1.98,1.68-2.29,3-.37,1.58-1.49,2.78-2,4.29-.51,1.5-1.5,2.86-1.22,4.58.08.48-.24.86-.38,1.29-.53,1.64-1.06,3.28-1.38,4.98-.45,2.43-.17,4.88-.23,7.32-.05,2.06.03,4.09.63,6.14.48,1.64.92,3.33,1.28,5.03.15.73-.02,1.46.24,2.2.75,2.19,2.33,3.91,3.05,6.2.6,1.87,2.28,3.56,3.85,5.03Z"/>
          <path class="cls-6" d="m92.09,35.27c.95.6,1.73,1.36,2.4,2.27.92,1.24,2.23,2.08,3.32,3.15.31.31.76.54.75,1.08-.34,1.06-1.26,1.73-1.94,2.49-1.61,1.81-1.81,4.25-3.09,6.22-.99,1.53-1.93,3.26-1.74,5.27.04.42-.29.76-.46,1.13-.67,1.54-1.3,3.14-1.48,4.8-.2,1.93-.04,3.9-.05,5.85,0,.47-.03.97.43,1.23.63.36.63.93.57,1.51-.26,2.41,1.14,4.57,1.06,6.95,0,.17.18.39.33.5.62.47.64,1.11.6,1.8-.05,1.05.18,1.96.68,2.95.74,1.46,1.68,2.87,2.18,4.39.84,2.57,2.76,4.22,4.44,6.1-.57,1.4-1.64,2.37-2.89,3.13-1.06.64-1.56,1.82-2.52,2.56-.45.35-.8.85-1.41.96-.27-.74-.6-1.49-1.2-1.99-1.94-1.61-3.01-3.79-4.15-5.95-.67-1.28-1.51-2.47-2.13-3.77-1.59-3.36-2.23-7.02-3.25-10.56-1.14-3.97-.57-7.99-.71-11.98-.05-1.37.07-2.71-.98-3.84-.57-.62-.08-1.36.13-1.99.64-1.94.95-3.98,1.62-5.9.76-2.16,1.07-4.47,2.25-6.5,1.35-2.31,2.37-4.81,3.82-7.07.63-.98,1.34-1.89,2.19-2.68.64-.59,1.06-1.26,1.2-2.11Z"/>
          <path class="cls-6" d="m34.97,172.74c.09-.97.8-1.54,1.45-2.1,1.14-.97,2.26-1.96,3.13-3.19.61-.86,1.41-1.38,2.37-1.72-.03.72.01,1.44.59,1.95,1.81,1.6,2.88,3.72,4.12,5.72,2.91,4.68,4.08,9.97,5.54,15.18,1.29,4.57.51,9.23.73,13.85.04.87.02,1.69.57,2.48.58.84.08,1.78-.17,2.63-1.19,4.21-2.33,8.46-4.17,12.45-1.33,2.89-2.79,5.73-5.05,8.05-.71.73-1.29,1.51-1.22,2.61-1.51-.6-2.29-1.96-3.23-3.14-.47-.59-.94-.96-1.75-.9-1.21.1-1.43-1.03-1.98-1.73.23-.41.9-.35.99-.87.21-1.18,1.18-1.86,1.74-2.8.38-.63,1.33-.82,1.28-1.72-.07-1.12.51-1.99,1.1-2.84.81-1.17,1.64-2.48,1.78-3.79.27-2.41,1.26-4.6,1.6-6.97.43-3.07,1.21-6.12-.38-9.1-.13-.23-.09-.57-.09-.86,0-1.66-.4-3.24-.74-4.86-.39-1.82-1.44-3.49-1.25-5.43.08-.81-.26-1.51-.5-2.27-.63-2.05-2.41-3.59-2.55-5.84,0-.13-.18-.29-.31-.35-1.05-.45-1.44-1.43-1.94-2.33-.45-.79-.85-1.62-1.67-2.12Z"/>
          <path class="cls-5" d="m116.75,67.1c-.26-3.55,1.33-6.2,3.24-8.72.35-.47.74-.89.77-1.51.01-.38.33-.74.57-.74,1.2.04,1.82-.89,2.61-1.48,3.15-2.31,6.62-3.19,10.44-2.39,1.92.4,3.66,1.32,5.25,2.49.75.55,1.45,1.22,2.48,1.26.21,0,.5.03.51.26.02,1.95,1.86,2.85,2.54,4.39,1.46,3.33,2.2,6.71.92,10.37-.69,1.97-1.73,3.62-3.03,5.17-.25.3-.31.67-.33,1.05-.02.3-.05.66-.42.66-1.49,0-2.36,1.16-3.39,1.9-2.84,2.02-6.01,2.58-9.29,2.06-2.46-.38-4.65-1.67-6.59-3.28-.13-.11-.24-.33-.36-.33-1.84-.06-2.02-1.77-2.81-2.84-.85-1.17-1.59-2.39-2.21-3.73-.73-1.57-1.07-3.11-.89-4.59Z"/>
          <path class="cls-5" d="m118.74,197.66c-.41-3.51,1.54-6.11,3.23-8.88.9-1.47,2.08-2.38,3.47-3.17,1.22-.69,2.09-2.04,3.72-1.93,1.68-1.98,3.94-.96,5.86-.85,2.03.12,3.9,1.31,5.59,2.55.79.58,1.5,1.35,2.6,1.35.23,0,.44.14.41.37-.15,1.22.87,1.81,1.41,2.66.67,1.04,1.05,2.35,1.74,3.23,1.28,1.64.7,3.33.9,5,.03.24.07.61.21.68,1.25.6.33,1.19.16,1.94-.52,2.18-2.25,3.6-3.17,5.51-.16.33-.16.62-.19.94-.03.25-.04.59-.35.55-1.38-.19-2.22.86-3.13,1.51-2.59,1.83-5.34,2.85-8.53,2.54-.31-.03-.78-.16-.93.16-.61,1.23-1.19.51-2.03.21-1.96-.68-3.42-2.2-5.21-2.98-1.29-.56-1.62-1.36-2.25-2.31-1.19-1.79-2.41-3.53-3.26-5.52-.5-1.17-.09-2.38-.25-3.55Z"/>
          <path class="cls-7" d="m100.87,223.65c-1.57-1.47-3.25-3.16-3.85-5.03-.73-2.29-2.3-4.01-3.05-6.2-.25-.74-.08-1.47-.24-2.2-.35-1.69-.79-3.38-1.28-5.03-.6-2.05-.68-4.07-.63-6.14.05-2.44-.22-4.88.23-7.32.31-1.7.84-3.34,1.38-4.98.14-.43.45-.82.38-1.29-.29-1.72.7-3.08,1.22-4.58.51-1.51,1.63-2.71,2-4.29.31-1.32,1.8-1.81,2.29-3,.34-.84,1.4-1.13,1.5-2.12,1.58.39,2.75,1.41,3.88,2.52.98.96,2.42,1.25,3.4,2.22-.46,1.71-1.42,3.13-2.62,4.37-.41.42-.63.81-.7,1.38-.06.57-.39,1.06-.63,1.58-.7,1.49-1.61,2.88-2.07,4.48-.93,3.27-1.34,6.58-1.33,10.01.01,3.93.58,7.65,2.29,11.19.97,2,1.58,4.19,2.86,6.03.87,1.24,1.84,2.41,2.38,3.84-1.77,1.14-3.5,2.34-5.09,3.73-.64.56-1.45.78-2.3.81Z"/>
          <path class="cls-7" d="m100.1,92.95c-1.68-1.88-3.6-3.52-4.44-6.1-.5-1.52-1.44-2.93-2.18-4.39-.5-.98-.73-1.9-.68-2.95.04-.68.01-1.33-.6-1.8-.15-.12-.34-.34-.33-.5.08-2.38-1.33-4.54-1.06-6.95.06-.58.07-1.15-.57-1.51-.45-.26-.43-.76-.43-1.23,0-1.95-.15-3.92.05-5.85.17-1.66.81-3.26,1.48-4.8.16-.38.49-.71.46-1.13-.18-2.01.75-3.73,1.74-5.27,1.27-1.97,1.47-4.4,3.09-6.22.68-.77,1.6-1.43,1.94-2.49,2.62,1.16,5.3,2.18,7.7,3.79-.57,1.48-1.36,2.81-2.53,3.9-.43.4-.82.83-.93,1.43-.15.83-.53,1.54-.92,2.28-.8,1.53-1.76,3.01-2.02,4.77-.13.85-.04,1.74-.44,2.55-.49.98-.59,2.07-.61,3.13-.05,2.53-.19,5.08.03,7.59.21,2.31.59,4.69,2.17,6.58.56.67,1.1,1.34,1.48,2.13.88,1.82,1.69,3.66,3.03,5.23.81.95,1.64,1.98,1.78,3.33,0,0-.02,0-.02,0-.09.07-.18.15-.26.22-1.75,1.16-3.59,2.19-5.09,3.7-.51.51-1.16.6-1.84.56Z"/>
          <path class="cls-8" d="m108.26,219.11c-.54-1.44-1.51-2.6-2.38-3.84-1.28-1.84-1.89-4.03-2.86-6.03-1.71-3.54-2.28-7.26-2.29-11.19-.01-3.43.4-6.74,1.33-10.01.46-1.6,1.37-2.99,2.07-4.48.24-.52.57-1.01.63-1.58.06-.57.29-.96.7-1.38,1.2-1.25,2.16-2.67,2.62-4.37,1.03.23,1.92.8,2.72,1.42,1.59,1.23,3.45,1.82,5.33,2.27,1.2.29.86.56.35,1.23-1.53,2-3.32,3.9-4.37,6.14-.85,1.83-1.45,3.89-1.82,5.96-.56,3.12-.9,6.18.12,9.31.91,2.8,1.49,5.72,3.36,8.12,1.04,1.34,2.02,2.72,3.05,4.06.47.61.49.89-.42.92-1.79.05-3.38.83-4.88,1.69-1.07.62-2.17,1.19-3.26,1.77Z"/>
          <path class="cls-8" d="m107.3,88.45c-.14-1.35-.97-2.38-1.78-3.33-1.34-1.57-2.15-3.41-3.03-5.23-.38-.79-.92-1.46-1.48-2.13-1.57-1.9-1.96-4.27-2.17-6.58-.23-2.51-.09-5.06-.03-7.59.02-1.06.12-2.14.61-3.13.4-.81.31-1.69.44-2.55.26-1.76,1.22-3.24,2.02-4.77.39-.74.77-1.45.92-2.28.11-.6.5-1.03.93-1.43,1.17-1.09,1.96-2.42,2.53-3.9,2.2.88,4.03,2.48,6.27,3.29.67.24,1.28.58,2.01.24.18-.08.44-.08.56.12.13.21-.06.38-.19.54-1.81,2.1-2.94,4.7-4.91,6.68-.08.08-.18.21-.18.32-.04,2.42-1.5,4.47-1.83,6.8-.37,2.59-.51,5.18.25,7.75.55,1.86.92,3.78,1.57,5.59.56,1.56,1.72,2.83,2.82,4.04.92,1.01,1.34,2.28,2.13,3.35.23.31.24.74-.28.66-1.66-.25-2.66.86-3.85,1.67-1.05.71-2.12,1.43-3.34,1.87Z"/>
          <path class="cls-8" d="m107.02,88.68c.09-.07.18-.15.26-.22-.09.07-.18.15-.26.22Z"/>
          <path class="cls-5" d="m132.01,116.86c3.52-.04,6.48.91,8.97,3.16.12.11.24.25.39.3,3.65,1.38,4.59,4.89,5.64,7.95,1.56,4.55.54,8.9-2.74,12.58-.31.34-.65.61-.41,1.18.15.35-.08.73-.45.73-1.34,0-2.15,1-3.13,1.65-3.72,2.47-7.65,3.05-11.94,1.64-1.45-.48-2.5-1.39-3.69-2.19-.67-.46-1.28-1.08-2.2-1.06-.35,0-.55-.26-.6-.54-.22-1.48-1.2-2.57-2.04-3.65-2.64-3.39-2.54-9.54-.17-13.23,1.75-2.71,3.74-4.93,6.38-6.61,1.85-1.17,3.85-2.14,5.98-1.91Z"/>
          <path class="cls-8" d="m164.58,105.61c.54.99,1.26,1.84,1.99,2.69,2.16,2.51,3.08,5.72,4.75,8.52.12.21.19.46.23.71,1.14,5.78,2.69,11.51,2.08,17.49-.08.75-.05,1.49.72,1.98.39.25.22.65.07,1.01-.76,1.84-.65,3.93-1.71,5.68-.06.1-.09.24-.08.36.24,2.21-.92,3.96-1.91,5.74-.5.9-1.08,1.71-1.29,2.77-.13.65-.61,1.28-1.06,1.81-.99,1.17-1.92,2.39-2.76,3.67-1.9-.15-2.92-1.68-4.25-2.71-.98-.76-1.98-1.45-3.18-1.81-.02-.3.08-.55.19-.82.91-2.17,3.08-3.49,3.76-5.89.48-1.7,1.51-3.29,2.15-4.95,2.14-5.57,1.67-11.22-.05-16.82-.66-2.16-1.4-4.28-2.28-6.37-1.25-2.97-3.33-5.36-5.01-8.03.01-.28-.06-.62.33-.7,2.12-.43,3.67-1.78,5.01-3.33.66-.77,1.57-.6,2.3-.99Z"/>
          <path class="cls-7" d="m156.93,110.63c1.68,2.67,3.76,5.06,5.01,8.03.88,2.09,1.62,4.21,2.28,6.37,1.72,5.6,2.19,11.25.05,16.82-.64,1.66-1.67,3.24-2.15,4.95-.68,2.4-2.85,3.72-3.76,5.89-.12.28-.21.53-.19.82-2-.98-3.66-2.58-5.87-3.16-.88-.23-1.73-.59-2.66-.58-.2,0-.45.05-.56-.17-.15-.29.11-.46.28-.62,2.07-1.88,3.4-4.33,5.03-6.55.07-.1.19-.2.2-.31.44-3.69,2.47-7.06,2.11-10.94-.22-2.33-.71-4.56-1.5-6.73-.27-.75-.44-1.47-.57-2.25-.27-1.6-1.55-2.58-2.69-3.58-1.53-1.34-3.01-2.7-3.78-4.57,2.43-.78,5.01-1.09,7.05-2.81.5-.42,1.2-.32,1.74-.63Z"/>
          <path class="cls-7" d="m33.94,41.79c.52.41.87.96,1.28,1.47,2.4,3.03,3.73,6.64,5.53,9.99.06.11.16.23.14.34-.33,2.18.56,4.22,1.15,6.15,1.37,4.43.62,8.88.88,13.32.04.76-.05,1.46-.54,2.11-.34.46-.5,1.05-.46,1.65.07.99-.29,1.85-.66,2.74-.58,1.36-.55,2.86-1.2,4.25-1.65,3.56-3.39,7.03-5.92,10.05-.12.15-.15.38-.22.57-2.71-1.01-4.28-3.71-6.99-4.73-.07-1.13.22-2.27.98-3.01,1.9-1.84,2.68-4.28,3.74-6.54,1.07-2.26,1.59-4.75,2.06-7.22.42-2.19.29-4.4.15-6.58-.09-1.39-.03-2.8-.33-4.19-.64-2.95-1.6-5.79-2.9-8.52-.67-1.41-1.16-2.87-2.37-4.01-.89-.84-1.8-1.89-1.33-3.37,1.66-1.07,3.48-1.91,4.79-3.43.61-.7,1.47-.69,2.2-1.04Z"/>
          <path class="cls-7" d="m34.97,172.74c.82.5,1.22,1.33,1.67,2.12.51.9.89,1.88,1.94,2.33.13.06.31.23.31.35.13,2.26,1.91,3.79,2.55,5.84.23.75.57,1.45.5,2.27-.19,1.94.87,3.61,1.25,5.43.34,1.62.74,3.2.74,4.86,0,.29-.03.62.09.86,1.59,2.98.82,6.03.38,9.1-.34,2.37-1.33,4.56-1.6,6.97-.14,1.31-.97,2.61-1.78,3.79-.59.85-1.16,1.72-1.1,2.84.05.9-.9,1.09-1.28,1.72-.56.94-1.53,1.62-1.74,2.8-.09.52-.77.46-.99.87-1.15-.31-2.06-.98-2.92-1.79-1.33-1.26-2.94-2.12-4.55-2.96.98-1.48,1.24-3.44,3-4.4.22-.12.37-.46.43-.73.37-1.46,1.14-2.74,1.71-4.11,1.12-2.71,2.14-5.47,2.34-8.41.17-2.52.08-5.06.01-7.59-.04-1.31-.14-2.62-.77-3.84-.95-1.82-2.34-3.45-2.9-5.43-.9-3.18-3.45-5.32-4.83-8.18.36-1.04,1.5-1.08,2.25-1.57.75-.5,1.54-.94,2.15-1.62.85-.93,1.87-1.48,3.15-1.51Z"/>
          <path class="cls-8" d="m26.95,46.26c-.47,1.48.44,2.54,1.33,3.37,1.21,1.15,1.7,2.61,2.37,4.01,1.3,2.73,2.26,5.56,2.9,8.52.3,1.39.24,2.8.33,4.19.14,2.17.27,4.38-.15,6.58-.47,2.47-.99,4.96-2.06,7.22-1.06,2.26-1.84,4.7-3.74,6.54-.76.74-1.04,1.87-.98,3.01-2.67-1.33-5.27-2.82-8.09-3.83-.53-.19-.81-.32-.46-1.13.92-2.14,2.7-3.62,3.93-5.5.44-.68,1.09-1.21.7-2.2-.13-.34.15-.88.32-1.29,1.64-3.97,2.25-8,.91-12.2-.44-1.37-.49-2.86-1.38-4.07-.2-.27-.07-.55.03-.83.2-.53-.03-.98-.33-1.39-.9-1.24-1.77-2.49-2.71-3.69-.74-.94-1.21-2.04-2.03-2.94-.67-.74.3-.79.75-.83.86-.08,1.68-.04,2.54-.43,1.77-.8,3.37-1.88,5.02-2.87.27-.16.53-.2.82-.24Z"/>
          <path class="cls-8" d="m27.42,177.44c1.37,2.86,3.93,5,4.83,8.18.56,1.98,1.95,3.61,2.9,5.43.64,1.22.74,2.54.77,3.84.07,2.53.15,5.07-.01,7.59-.19,2.94-1.22,5.7-2.34,8.41-.57,1.37-1.34,2.66-1.71,4.11-.07.27-.22.62-.43.73-1.76.96-2.02,2.92-3,4.4-2.75-1.55-5.33-3.54-8.75-3.57,1.37-1.96,2.73-3.89,4.08-5.84.63-.92,1.08-1.88,1.3-3.03.41-2.09,1.22-4.1,1.69-6.18.49-2.17.23-4.35-.23-6.52-.45-2.14-.98-4.29-1.68-6.32-.53-1.53-1.4-3.16-2.67-4.39-.78-.76-1.46-1.58-1.95-2.56-.32-.64-.31-1.06.55-1,1.13.08,1.99-.42,2.76-1.18,1.08-1.09,2.55-1.47,3.89-2.1Z"/>
        </g>
      </g>
    </g>
  </g>
</svg>